<mxfile host="app.diagrams.net" modified="2022-05-02T23:53:34.644Z" agent="5.0 (Macintosh; Intel Mac OS X 10_15_7) AppleWebKit/537.36 (KHTML, like Gecko) Chrome/100.0.4896.127 Safari/537.36" etag="_28LCBtXKGE_6Pm8zH27" version="17.5.0" type="github" pages="2">
  <diagram id="kNlRcOUxlYaT-4kiOgBj" name="Kubernetes Cluster">
    <mxGraphModel dx="795" dy="521" grid="1" gridSize="10" guides="1" tooltips="1" connect="1" arrows="1" fold="1" page="1" pageScale="1" pageWidth="850" pageHeight="1100" math="0" shadow="0">
      <root>
        <mxCell id="0" />
        <mxCell id="1" parent="0" />
        <UserObject label="" link="https://sanjaysaini.tech/wp-content/uploads/2020/06/how-to-dockerize-reactjs-app.png" id="CuSs9hA_2iUlgKDZP2Dt-2">
          <mxCell style="whiteSpace=wrap;html=1;aspect=fixed;" parent="1" vertex="1">
            <mxGeometry x="150" y="70" width="670" height="670" as="geometry" />
          </mxCell>
        </UserObject>
        <mxCell id="CuSs9hA_2iUlgKDZP2Dt-8" value="" style="group" parent="1" vertex="1" connectable="0">
          <mxGeometry x="20" y="192.41" width="50" height="220" as="geometry" />
        </mxCell>
        <mxCell id="CuSs9hA_2iUlgKDZP2Dt-4" value="" style="shape=image;verticalLabelPosition=bottom;labelBackgroundColor=default;verticalAlign=top;aspect=fixed;imageAspect=0;image=https://cdn1.iconfinder.com/data/icons/google_jfk_icons_by_carlosjj/512/chrome.png;" parent="CuSs9hA_2iUlgKDZP2Dt-8" vertex="1">
          <mxGeometry width="50" height="50" as="geometry" />
        </mxCell>
        <mxCell id="CuSs9hA_2iUlgKDZP2Dt-5" value="" style="shape=image;verticalLabelPosition=bottom;labelBackgroundColor=default;verticalAlign=top;aspect=fixed;imageAspect=0;image=https://design.firefox.com/product-identity/firefox/firefox/firefox-logo.png;" parent="CuSs9hA_2iUlgKDZP2Dt-8" vertex="1">
          <mxGeometry x="5.614999999999998" y="60" width="38.77" height="40" as="geometry" />
        </mxCell>
        <mxCell id="CuSs9hA_2iUlgKDZP2Dt-6" value="" style="shape=image;verticalLabelPosition=bottom;labelBackgroundColor=default;verticalAlign=top;aspect=fixed;imageAspect=0;image=https://purepng.com/public/uploads/large/purepng.com-safari-iconsymbolsiconsapple-iosiosios-8-iconsios-8-7215225961106timx.png;" parent="CuSs9hA_2iUlgKDZP2Dt-8" vertex="1">
          <mxGeometry y="110" width="50" height="50" as="geometry" />
        </mxCell>
        <mxCell id="CuSs9hA_2iUlgKDZP2Dt-7" value="" style="shape=image;verticalLabelPosition=bottom;labelBackgroundColor=default;verticalAlign=top;aspect=fixed;imageAspect=0;image=https://cdn.vox-cdn.com/thumbor/0n6dqQfk9MuOBSiM39Pog2Bw39Y=/1400x1400/filters:format(jpeg)/cdn.vox-cdn.com/uploads/chorus_asset/file/19341372/microsoftedgenewlogo.jpg;" parent="CuSs9hA_2iUlgKDZP2Dt-8" vertex="1">
          <mxGeometry y="170" width="50" height="50" as="geometry" />
        </mxCell>
        <mxCell id="CuSs9hA_2iUlgKDZP2Dt-11" value="" style="shape=image;verticalLabelPosition=bottom;labelBackgroundColor=default;verticalAlign=top;aspect=fixed;imageAspect=0;image=https://sdtimes.com/wp-content/uploads/2017/01/0118.sdt-kubernetes.png;" parent="1" vertex="1">
          <mxGeometry x="440" y="12.030000000000001" width="57.97" height="57.97" as="geometry" />
        </mxCell>
        <mxCell id="CuSs9hA_2iUlgKDZP2Dt-12" value="Kubernetes Cluster" style="text;html=1;align=center;verticalAlign=middle;resizable=0;points=[];autosize=1;strokeColor=none;fillColor=none;" parent="1" vertex="1">
          <mxGeometry x="305" y="40" width="120" height="20" as="geometry" />
        </mxCell>
        <mxCell id="CuSs9hA_2iUlgKDZP2Dt-16" value="" style="group" parent="1" vertex="1" connectable="0">
          <mxGeometry x="160" y="222.41" width="110" height="160" as="geometry" />
        </mxCell>
        <mxCell id="CuSs9hA_2iUlgKDZP2Dt-14" value="" style="rounded=0;whiteSpace=wrap;html=1;direction=south;dashed=1;" parent="CuSs9hA_2iUlgKDZP2Dt-16" vertex="1">
          <mxGeometry x="15" width="80" height="140" as="geometry" />
        </mxCell>
        <mxCell id="CuSs9hA_2iUlgKDZP2Dt-17" style="edgeStyle=orthogonalEdgeStyle;rounded=0;orthogonalLoop=1;jettySize=auto;html=1;exitX=0.5;exitY=1;exitDx=0;exitDy=0;fontFamily=Helvetica;fontSize=12;fontColor=default;" parent="CuSs9hA_2iUlgKDZP2Dt-16" source="CuSs9hA_2iUlgKDZP2Dt-1" target="CuSs9hA_2iUlgKDZP2Dt-3" edge="1">
          <mxGeometry relative="1" as="geometry" />
        </mxCell>
        <mxCell id="CuSs9hA_2iUlgKDZP2Dt-1" value="" style="shape=image;verticalLabelPosition=bottom;labelBackgroundColor=default;verticalAlign=top;aspect=fixed;imageAspect=0;image=data:image/png,iVBORw0KGgoAAAANSUhEUgAAANMAAADvCAMAAABfYRE9AAAAgVBMVEUAlDj////+/v4AjicAkzUAjCDZ7eCy2b673MUln0+i0K8AkjIAjyoAjiUAkTAAkzcAixr4/Pp5vIzR6Ng/pV2azKju9/FOqmnL5dMvoFLk8ujF4s6p07X0+vd/v5FVrW+KxJqRx6BxuYVFp2IZmkQ4olhhsnhotH5UrG0AhgBesHU1LZx+AAAKm0lEQVR4nO2d61rqOhCGkzaRQ5JaEAoCRUCUtb3/C9ytolDJ+VCS9azvr9L0pZ1JZiZkAPz7BO59AwH0j8le1Xr40NNQPTFlO8xYuVj1Mlg/TANEQSOCp5M+huuB6ekNI/AlSsfhxwvPVJ1KAn70yEbL0CMGZ9qzAnSE8EtoswrLNAAU3IiUu7BmFZLpYfZjSF1RtAk4bECm6oQJl6h9AdnzU7CBwzHNcSEi+qQqP4KZVSCm4TGXEbUq2C7M2GGYhIb0y6zIIMToIZiqQyk0pF8vIH4LYVb+meaU479FIvhUeb8D30xDkD/qIzUq8N7zLXhmenjVMqSucjD0ehNemSZT8YwkE8Izr7GVR6aNiSF1RcqDR7PyxrR8Zuav3UVFPvd1J76Yqg+71+5K+dGXWXlhmuxK6UJITwi/+jErH0zciMJGTXBfe7gfd6anNydD6ooWHoJ7V6ZuaO4uxI7rOzPdhOYeqPAfxyjEiUkjorBRgbdOwb0Dk2ZEYSNKXYJ7a6b64DwjSYTYyN6sbJnmuSf/LaTC1qloO6bhkYUlakXKrd1sZcO0WgQzpK4osZqtzJlsIwobIatUtDHT2D6isKIqzVPRhkzrkceFkJ4KZjpbGTGt/vRkSF1RYjZbGTA1EUVvhtSVYSpan2lDejWkrgh+1w/udZme3EJzdxV4l3llWr2X9yVqRYFmKlqLaec/orARwjMts9JgGtzTkLoipU4qWsl0VTWPQQXbuzLJin13kjpnJmfa+8hx+RbCb/KcmYwpUGjuLkUqWsxkVaPoS1SWihYx1drFvvvoUVLhETAZFfvuoya4F5gVl2l9ZGbFvvuI4AM3CuEwrRYRLIT0RBkvuL9hqrfRzUgy8VLRv5nGRfSG1BUnFd1lWvYfmrvrJmd2zbR6iXhGkomiMZ9pspXveopZ3ZzZD9MmNUPq6jpndmbyWuy7jy77zL6Y9sYLIVTQnDGWU+L9u2gu3aiw2BAzmlyYxqXhpwkDL/vNcD3c7BZHTD1iIcrepvPxeH54xsbGQBcXpqPZTZFyMbzK4TzMn0tftkjJ/CeKWO1zU6eFV99MldljYp+7g7IftVhbL1kYhHdXV27WNCdsdgE2/GZ6MPoknl8DfQ9fHdznNpSvu5eGcGBW58oHVkx4eEP0Nfy6cH1U5dPtlzU0eofsmARI7fD1zM2q8IZzaTg3eVJWTHQnQmof1cmlIkr+8F+AmcE0Y8OEwK0tXUMdHKDwA5/J5C2yYcp5r8f1Dbzbb0tcCC4NF/oPyoapqBVMcGbrKIRfFxzoZ+QsmITf5eUGamTp0tlKxFTpv9AWTHSuYsrgynIxnAsvbbDMsWBqPqJiamYUw7n/S49EzDQKycSEk9P1LextoBqPGjFTBk8Wzi9ypszG+UXPVANjPxE7U+v8THPT0TNlcG0aOcfP1CynDZ1fAkwZPJjVGFNgyuCrkfNLg6k+muTXkmBqnJ9JjiwNJjPnlwhTBsf6zi8VpgxOtZ1fMkwGzi8hpkzX+aXDpO/8EmLSdn4pMWWahaCkmBrnp5P3SYspgwsN55ca00TD+SXGlMEqV95VakwZXCr9RIxMijz6RjVEhExQ8QThVuH8YmSaTxVQC3kiM0am8X/y0hScjKTOL0qmnFNh7vxHJd2ZEiUTRUUlh3qSOb84mQAZyb2f1PlFytRu95ExZXAndn6xMgGmcn4vQucXLRPAY/nbB4XOL14mgNeWzi9iJiQsn5//70kwVsRMAB3lWyjggO/RY2YCxauV84uaCeQnBdQHz/nFzdRuWpQywWdOLB85k2SP39f/8pxf7ExK58cZMHYmgJDK+d2MGD0TKGayvYut8/s9ZPxMgKqc3+/NiwkwAbxXOL+37sovBSZQqpxfd/NiEkyiPbs/n+iOmgYTAopYvrMdPg0mQJ4Vzu9682IiTIB+KJzf1ebFVJgAk/xqIPt0fj8rv2SYQCnfFAyrn82L6TDxfirT+djD9+bFhJgQ0XR+CTGpE5nnzYspMakTmQeaHBNgW4Xz+9y5nRYT//dnVx+dtM4vMSaAl3Ko9mcrqTEhpnB+6zI5JkCOE5XzS44JFErnx5JjUlVxIHwtkmMCpaKKM0nvOamrOOKoOF4mRBWJTPFfomVqvLXc+aXI1FZxrKBiZgL54e9jUlVxkmRSJTKTZHrM5c4vRabG+SlOAUiQCRRvxs4veiZlFSdFJlUVJ0kmY+eXAhMo5VWcJJkQksfyKTIpqzgpMimrOCkyqao4STIBrHG0S2pMAMurOEkyqbajp8ikrOKkyAQo/yC3pJlUVZwkmUCpOCbuzkxzq0PqFFWc87XvdF4Y3FqdUadKZH5dm2gfLGRzrpsw6W10QuOVyFHp/GAV9Py9QhSjwtr20EdVFae59jLo+XvoKGIyPMf1SsqVH5zqv9Y2Zz+KihO2r97nNRUl7NrglGqrc0dH3PEtzxE8S+7R4dbAo1qdD5vz3hT7Qyy/hPfiEFH+K8Sb27M7x/f27XM4bPT7ou8i72d2SJIlE2K/YwQo+UWdrihYcx8VfDI7mt3yDGnEBt2Dvqs3D4eXI/zycEMF4dzwENML08rssLxO75vJnPlpm1LgxblR0CdNq+Gz6QxxOb88o2anGhbl23hZ15NJtZ567D9EGPvYPNWT5oYm9WpwoOYnzV7OmVceGnA7PMVtVxvsu8dfc10GRqMjYjgvzFsbtT8T+WaCrxbLgEc3By4UamTXqYmC+ooplq6KLrp0g/rug1K9x91rTCWEZz+e69Kv5u5dSl3U6a52YYJwABJtWVPQ/RVGh6nt+pugWd00Ae0wNWb1klTnMcDtKvmLCcJlWmbFa6p7w5RUJ6ii5DU/5jDBLJGOXQR/cNt+8pjazmrxtyhsDEnQ9ZjP1JjVMXKzooWw6buIKXKzujQaM2KCk2msfh2VH7/7LGoytZ0/Y2xYiNhxKbtrOROE61F0HVopERqSHhOE47g66RK85faXNWKC9TSeRSDCC5khaTNB+BCJWT2y0W1jWUumtoO4SwcuT6KU1wDYmqnNtN3ZrIpyWqtv04gJ1od7zlbihtouTHdt+J4fhY3P3ZgaswL5PWYraYN6V6a273vvfp3gg64h2THB6tRvzgzhV31DsmRqzGrWo1l1clzhmCAcHM160ViryPcWt2fFBOG+j+D+JscVlglW76FnK06OKzBT25U7qFnxclzBmRqzIsGWS6RURxRBmIJVeBD+oxFRBGJqKzz+X0DNiCIUU2NWI885M8o0I4pwTBBukEezInjqYEjemOBk52u2MoooxPLA5CsV/Wi1EOLIC5OXCg+lZhGFWJ6YGrNym61IebBbCHHkjQlOtvY5s+uqubv8MbVmZblcMgvNlfLJZGlWBdt7vQnPTI1ZmaairSMKsXwzNWZlsvnNryGd5Z2prfBoz1YuEYVYAZggXOsVTot2c28ABWGCcKwunBL87tuQzgrE1FZ45D138LOgau6uUEyKVDRFIQzprHBMbYVHkDMr2Jaz/cSbQjJBuOcF96h8cQrNlQrLBKvT75wZcg7NlQrM1AT33VQ0LZxDc6WCM0E4uAT3RL/Y56AemCA8B/cIv4Y1pLN6YYKrE8asfPYaUYjVD1PjLNbDXp5Rq76Y+tQ/pjT0PxAJ6190xgFfAAAAAElFTkSuQmCC;" parent="CuSs9hA_2iUlgKDZP2Dt-16" vertex="1">
          <mxGeometry x="28.514999999999986" y="3.5900000000000034" width="52.97" height="60" as="geometry" />
        </mxCell>
        <mxCell id="CuSs9hA_2iUlgKDZP2Dt-3" value="" style="shape=image;verticalLabelPosition=bottom;labelBackgroundColor=default;verticalAlign=top;aspect=fixed;imageAspect=0;image=https://upload.wikimedia.org/wikipedia/commons/thumb/1/1b/Traefik.logo.png/1200px-Traefik.logo.png;" parent="CuSs9hA_2iUlgKDZP2Dt-16" vertex="1">
          <mxGeometry x="31.5" y="73.59000000000003" width="47" height="64.83" as="geometry" />
        </mxCell>
        <mxCell id="CuSs9hA_2iUlgKDZP2Dt-15" value="Ingress Controller" style="text;html=1;align=center;verticalAlign=middle;resizable=0;points=[];autosize=1;strokeColor=none;fillColor=none;fontSize=12;fontFamily=Helvetica;fontColor=default;" parent="CuSs9hA_2iUlgKDZP2Dt-16" vertex="1">
          <mxGeometry y="140" width="110" height="20" as="geometry" />
        </mxCell>
        <mxCell id="CuSs9hA_2iUlgKDZP2Dt-22" value="" style="group" parent="1" vertex="1" connectable="0">
          <mxGeometry x="560" y="120.00000000000003" width="110" height="129.99999999999997" as="geometry" />
        </mxCell>
        <mxCell id="CuSs9hA_2iUlgKDZP2Dt-18" value="" style="shape=image;verticalLabelPosition=bottom;labelBackgroundColor=default;verticalAlign=top;aspect=fixed;imageAspect=0;image=https://blueskymetrics.com/wp-content/uploads/2017/09/mongodb.png;" parent="CuSs9hA_2iUlgKDZP2Dt-22" vertex="1">
          <mxGeometry x="13.5" width="83" height="97.27" as="geometry" />
        </mxCell>
        <mxCell id="CuSs9hA_2iUlgKDZP2Dt-19" value="Mongo DB Cluster" style="text;html=1;align=center;verticalAlign=middle;resizable=0;points=[];autosize=1;strokeColor=none;fillColor=none;fontSize=12;fontFamily=Helvetica;fontColor=default;" parent="CuSs9hA_2iUlgKDZP2Dt-22" vertex="1">
          <mxGeometry y="89.99999999999997" width="110" height="20" as="geometry" />
        </mxCell>
        <mxCell id="CuSs9hA_2iUlgKDZP2Dt-21" value="Persistent Volume" style="text;html=1;align=center;verticalAlign=middle;resizable=0;points=[];autosize=1;strokeColor=none;fillColor=none;fontSize=12;fontFamily=Helvetica;fontColor=default;" parent="CuSs9hA_2iUlgKDZP2Dt-22" vertex="1">
          <mxGeometry y="109.99999999999997" width="110" height="20" as="geometry" />
        </mxCell>
        <mxCell id="CuSs9hA_2iUlgKDZP2Dt-23" value="Mongo&lt;br&gt;K8s Service" style="rounded=0;whiteSpace=wrap;html=1;dashed=1;fontFamily=Helvetica;fontSize=12;strokeColor=#82b366;fillColor=#d5e8d4;direction=north;" parent="1" vertex="1">
          <mxGeometry x="497.97" y="141" width="40" height="88" as="geometry" />
        </mxCell>
        <mxCell id="CuSs9hA_2iUlgKDZP2Dt-28" value="" style="group" parent="1" vertex="1" connectable="0">
          <mxGeometry x="550" y="277.40999999999997" width="120" height="104.99999999999997" as="geometry" />
        </mxCell>
        <mxCell id="CuSs9hA_2iUlgKDZP2Dt-25" value="" style="shape=image;verticalLabelPosition=bottom;labelBackgroundColor=default;verticalAlign=top;aspect=fixed;imageAspect=0;image=data:image/png,iVBORw0KGgoAAAANSUhEUgAAAOEAAADhCAMAAAAJbSJIAAAAgVBMVEX///8zZ5EwZZAqYo4tZI8fXYskX4wdXIr09/kXWokrYo7r8fU3bJVEdZv4+vxHdJrL1+Hm7PGMpr3c5Ourvc5egqLT3ea5yNaetMeyw9JsjqzE0d16mLOTq8Fxka5UfaBZgaOGobqasMUAT4JukK5liKiRp71PeJ15lrIAT4MAVYYe0UyyAAAeJ0lEQVR4nO09h3arurIBFWooxgb3tjdxbv7/A59GI9EMWA4kOXlrz113newEY400venl5R/8g3/wD/7BP/gV4ObF+swZb0L4tgt+el1PQuQGaRoIcKOo/q2bL4+x53FO7Q4Q5r3ul5n7Q8tN82S5PiwEHNbLTZJno/st0NiXt9DmnBA7DOPTuTwuxKcEdqEncLMGwCbcid+Lbz/LfF2GlqQpAiD+yzixwtvxukt7Hs/WZ0s8CnjYlg3Y2DallIhPMU6b+MBvJfh+jbXtM1oW34edWxyZx/27XYflU848+r5JGzT4Eqxjr4VG71GJT4otik/lcX8RZHHZl6dY7CHRH/QZO3zPQeYXyho0Jc+C2i10fe7F+0KdZbZnXP8VTk0BaewQJYzF4vSzIGp/V5AVhzLU2yMI/NJHIDPjV4qdRswIczyPvp5O5/Pp9Bp6ngN0WHEPo6dDkuZ7Tmz1C4+c3hdXwbLFZnm4lK/MY4ISiOOd3oo0GvxKN1+fPNwkm5PD10qdtGRUcT+JL5ukRTVpUqz3J1qhKekO8RPohZd7wZ/uBDdfkmHk6ieXMced5XQzHz53sPYockS8H9ZT2W6xshzSIFvK4rds8pfne8rl65zzV5FqumJyvc5292jXg+RwqrjHOxUGp6Q/mWb5riiKXZ6l3U1MF4QgNy+fXrwJ7KgPb/dKw+NIl+cPwWY83hk+v7m+n2OhLx2hgxhzOA3j1aVofVtwQSpi+2dXbwBLT3L6Le/8PoqEkRL1H5K7Ka116zeCVzdLAZsiv5MtG8sTMrohpQUnC23Pt8sGVWYnSUj8NLvAWTsSwcZ6o7Q47FexJQSq55HwVO4PyyQd/mJ3tzgTIW/R8hRymN/e1y1ZFa0t3qsovdWyfm4tBRmJZ2bGJRN769v1ASaXG1gxWjGK/faFZeOwcHXZ9JHx7hg6pK31hSbljrW6Nh4XVNhrvQkZc6key2LgRt+aLrwakMAXk1hvpLuOORkwJAVhkfB905YSm5j5/Y+LxfN4XT+dx7z/xYTv9VNRCUdtky7DTIAU3kg06UdrZ2AVFfj847U+myR0Rp+3ufe3Xu2B9T9sk4+rZt0Lkx9LZsNwJciLxgrBZGiXO2fjKRnqDlBe5+myWm4SkoGnajmHco/OdYpL2DGuOPvqPLKhERyls7K4R3r04ci3WnYE56GP0ErUbWDbbDKPKS5p1FEncmRG67W40lg5M9sQC0j7qr/y4gw8Y7NSkdIGiJnG5rbECGwF0fCF+tnsQCz/hs/vhpbav/yKCq8DzCjEgaWeWcKr+RyqPxMkb6u92hsiaFGkuGSIo4Y+xrQ9thxE0WbKFT4AimwGv7ik1XvWnuFK1fPpkEoZBJsdNYrDp8+UdwHEZYeTEczFsVGkucxIiAoguMzIMubBGniopMfwdtoebqAbivWwyVb4hVRi5mS6YI6LPD5JowiVsbIYFmoMeXHDZzjEAIQyHuHGUIxaSqQXpkzbAaqNw+PgC2yKexiL1TkTlSKgxZEQQlOmCqVYco2fv1s/x0VHtyFTz6Jn+cRa7AFZTMOwFF9iyw3bmAp+tSGXTx4hoOggoQbDbOFIaZM6FYV9FlzB7hTlRmx8hFInp6ZytxdFC7XNbvAldCUfgC0IJxk2OyBSuV2Z8REe5Cc/J2YqBG5ouhyGeN9GaQYkxie5UUKS2qi9D4ZEZxP5eGYqlgaA4BlJFHrBk5b6gkwVNYI0FZ2bqgq/1FszDRgKkHSIN5CyQNTwKWZNJIwSIk2/1FQXojkTTMRPgPK+hmwblGegEfl6cP2PAdwKfNXOlOo8XNfnBakG20IJcu6nU3RECqZ/+iRkYqFMEvybIdXhiZubP2Ov2uIu99vg5A3+mDgTFWIutsiTomo7qHzbwCRtZVNURQXK/HzrpQdykQt09E+fhES8/AN+iAy1oU2klL9OJ1J4maWMoxEMvYlnCKYlld9i6AcpSfr6WYOtDUq19jL1TBgKYUxP8IOphYJcH3zMgqBW61Hf3xBDyYeHCRgKYey/6zeZALo1n/Uq7oC/6Y2+x1DiJW2uKdpCvKB+kwmgjbifqu5rwEPsEaeIV8P1+TSG6k2GIUFJ0uZG+kNQh9hjIaElM9mmAQzlDhlqcGSO1J4NQ4tK2dxj9nu5Rp0Zpu8GMdw8gSE+nM/FhlbFZKs7C4KhbwFhsim+BWBYUYPJepIntuMRYJUHe+l/JXqhofAMyLdiKD2nBtdg+c/TJpxNGIeqqVVZniQN3sUllQcMSmySB/wkhjaRn1IkRbgXno+Xy2Vfht4zkVPqxItdp5bt1vk82r8BRDHiCQgChuwZPpSRPRecSuqQ/abKCLv5hRtrEOfUU39y7NAB8ieYpbSciGHthz0GZf8Qm5NjN7fn7s1UKuW99TKLzgY58v2gDqfF2p7U+Bizyv6E1z7WMLJ0aNwvNw5tDFVoBTh+kjqEPcJVm9mluJ35eqBcYWeSFagLEKIgcKsy1I6ZpJjvLGiXTwrTCAGDYRoz36LHQgzyJK8WvX5ICTpx/JIsTsJpCgVg0cXfNh9S6R1Lv4pNqjsBwpIKKerKsn4M2yyUrUvuOY7jEV1SeH6gN5Tz9bKzPzyBHpR52Rgs7Kh83EsIQdivUxCU7OfJPTLy8Zv2U3qAolIhUz3PY56DzJI8OEQVGFx8hGvQFqn0pCVPn9o7jD4MSPhJHj6uCKMYXVnWv8BKgOZHLpmOH5M0zYoLw/DmS6+7XoE6j40XaspjmuM6NISWzn6yoMFIlDwYI4WoMUxLVUFc6aogxizyYXSj1HnQ6lyEvkMN1IlkYGJGhla8abVRIGDQbc9NXGCF4dXTTEPf9ZvSP3KjxvP6qHuFt22rM7xRLcvb7opiQ2+G9GGolVw6XExfAx73ptYsNq8qSD6kJglGtQ7uEIROYuCz/Ey0L99JEng1G04tVSh9pS6Mgm3szoZVBjJkOw2cY2R5UOOU3FaxLFBF+Vy0McSDA0uu3wJ6AmphVho4CGo1TZYlZ1h1uuWWIxnxfYwRMW2IJqitiAbPtR2eVHwKsoxNLVGUClGSxLiMUBhqPmoAdcJzCIyJmmDUSUHia5sv9bnWgLQC32OfJiIomRmrHXYGwrQWAE1Qp4FOyqiBi3zczuN58ujbFIRZfFBgU1PcL5ISkCYyEwxRKvTLS1xMOiZMcRPaFREy09OWAsrykSbb9PJEYWepqgADKkUkBpIW+Jr+EL3+vNyhvPV5dDlbR6iiQXIjphdDS1vGVNSoUNvAMdnyhWNZKVRMURNDlORB85UqywzCx5/k/SKA6+s9lhEKw/0IhjaX+9111luPxHebgOqmpUYVTYEdN1lXvCDJoQAxCOz7EsOhmgb+2MD1JLU0VQOeUss9VZUTQKQfM1TsA9+g7RU9xhDPcCh5aBBqRDXQ3CJ0BFtniNIVJK46zYkg2E/Zfo/zuohhPoAh6oJRdXGfQVYYNj5E0Na9zVK1BwBU5VX65wGGVV62D/rsgbs3yO9snLOSwI3NRT9MnjObpQha5q8K/dMDDA9jOJiwM9pojUoOdBkbOkZJI2m8budAUEab8WyCh7EaxGFoJ8bxV88gmdYC1+bw70YQRcWC4JTnqA8GgPgu+t4PGRHpcChqiPbAA5GM3n3jIVlG0AjTYBgRd3Gmptkt+Cjyex/WOSE1D0WPkRIe0LrScHXlJvrw1aH6WEYIxWCTXUMNwPZcisGHIV1nVB8YYahyrPU7nCpPKAENUZmomRYobUBWlTs8LExH/26o1ARf8ig/gLtUC0/UMdqgUnIGvmJaRqYFnnH2elyrYMDnUUhLCcjKhWrnTfBf0tWYlL5vgzS5u4nBfgzl838HBFJdTTj+EkkIVaVgWwITac9APMtms7TLSFhyI3vE0uGTofA4Wm0PYwXqEBdqJ5QliN+sSoiknJkWCW6BZET5Pnc8P6NCCoOdZz3xiD7AvHxAmghjqE+F7qQ9M60yuA1RWJWLj1dz+fdWchN/qbsN0gPK8FSHqNwn/AJUFbBJc3iGNUBoyKu8zhEM5dKGnCdsvDFI8ahcTKTGKGDuS5ptGBOTlDSpxOQOiqqcfTzyXRfT9f5V8lBgEFlWqhxlEioFKT0bTRYzqgoA0IMqwDCaWSGjDjAqOqN2PeREbElpYIjJxblVhQRhkNqY7RmVE7gLQ3yIjpFRDkuJU9m7ihgClapzk81OM6oKCaB+1RGM6YvRoJyS7uPpNQ0fKCiBZxGvIGwf4ZSCyz5IqpKH8Rp81If9iV60Lw2rOJWkBAGg6jts3SJYOFXd6YwQVXs53OEBgFZbb9G7svuG7J0uqEgvZNf+wg8Z1y2C8ghn1PYKYGFYPjbaoociPOljRJTFgdkRVgQv5LIuDVK/gSPUPbhzQlE1bow6+kjJvYk49GwNy+MEqMR/SbVHpk4V5Cufnqy4A9nCdpY/jpVTqKBcT/uAyqAYVXTgq5ApcubI/144JiKljzFTF34bQF+gUTjq36FTmt5XBn2kuF5TBHWD4csK9fANpSsK0rcvQBAdfUmmo9a3skYW3V1QsvGp+m/ZBfGyw9jhB8oWSeV8Zl2IkLKKTMdNZ6w875pmKkj4VJ1p02w5oHpwZQHLlNL8EYBgF1rfxRipKVXc6f1UTPVc7bAd1mflIVYL2bv9RePMGmQ6dhK6+GLdUguqu+zJEv76EDcowWR+Zp5Ifg+A9a1E5Sg36RqhRQNFlfAbcjqGQZ+WGoUB4RQ6ra95DCSZSoGWjBKbp/b4WuOjSk5GyzD6QJsuG2nWYCXBXHHuHqjLccdLa3QzvbASNEZIbsGzCOokzEuO4uvWPsIouBvoNg1cbmvmH/f0daf5S3DEEYuKSA3bbtqvakgV+a3Syw92y8tJjph0Zh35CbYpxr7HS7csWrUH5HvLIZSg0W1SctQFUkdjVO58cTxZnqPncNm+N1A1/RkA71yFgh54CH5dTRfsDttXKYLTT3V71Y6gagcmtPPddMZ5WPIL5PGMS0Xb6/vO5QdzzCcqaSD/U+9qz6ywLRyESq26I3oGONSd4aPm96C4C4rTc7xo86OmwdLhMAfWpjD4jpHwtF8XxXIlDfH3ge97GiDurFTimF3DlFXVO8B5Y1LEqcEPG8SQX99Xtzg+bfeHTV61qiz5rB6/VIl1sGQAQaXE1h/hpUcI5Oade3bcXXkU3Y2gPNI5dWTBWzHLXuConeU8NcLDS5F3lpmYjmKyjfKDtW8+C8DJqbjzwLK0eN8xNTyYe390UEVtv+kIEZ3idZNixNaWGE4ZqtAGODkVy+w/RKpmK+a1atA4J7dYlWgZYqhmQS1DxwmXdzi6ijRkX9B8xngEo/xU0qeP1mycRtQM5mj1n3OfOsoHMtKMKpGzlkMXubVdJnLke5Alu+Xib7jV32RVxt0sABSGGaa+8T/adQrCunJC7YesBLO9J2KmGH6sRBrlzIH2G8dhjDtVxR6oraYjORmaW3ZvhSnrwj3pQ6IszBXOcqGqLsfIi1Ipgh61RFk1yVROA5uRDV9UvZyaT9eNK1aj8JDRCHNWmn9WiLMq4TKSpgOJLJs7Wy1jI4ngzE6/jOqrMFhHKHpqK/ccRCgTiqL6Zj1uEWfxuUaiBpNxxUdjcrIvKPW2rqLBrrSQFOnPB1KGqpaWVo2UnkJ5cAi/XVoXJGh/31aVJEYxReVUXm4WZ57DiB3eymtzTvqO+BLB2Ue0A0cpVRU0RlNzVUW38cils6nVMFJlzz2oBtAv1IZKmmV5nmWdKdOBarr9grCNlKFKpuQVR5FTpP7a9deSytrW9pyZpHHGVEC0ttC59r4iqFGS2vnOLDXOX41XE0qhZaQFm5v2mGxHl6GZYegNe7bpm5qwT+adeF29Xw4MV/1MwcrxKXH+4gkGTaIJkqu+tMECfVbJdEMM+yVklC5Xnrp/gh2/KnQqByfr/E9xPB1VXUR08tWMiqy4nIlT30tiO7ea6Az1Ib6oQRLCnFnvb9WlLdz6urAb0KnF7vWs+L3CsAj/yCkKwmUFIe+9NgWeEYaqpNWy4nIvYFveQqFh6znpxFt84VUekbTKvG4Wr2ya+cFmD2siVCxx3eYWIwxVZNmzpFdP2ve82JxcvvbKGTRnnBYbBCWWvzQUoSsEfSummchNMdIWqjml51HKndv1y6+bwbA3iWtOKNQgdRoOfrl78UpzDPuKwqlwN63jOvuS9FoH0MO1ebzOXbjqJq4mOVEyoIOXlFNzDOuSceFVMLjTg3N6PhRfoh56Ice4pTCE4XoLVYKGuo+9bu4d1mXINHMZYViVBtMy2e12SZJ/+9Vk6alrXvI4UbzI7eO6iodFQbbZW/KMMUXjmviHqPD3ZPb6rmfg6jWcdZt+vLsv0VmtXogDGt7Oq9XpFsN1ZOq3Z4mhgeWthj0LB3fiRIFpEOwp3FJiw3UwRHlt6yrjZFt3t3lp/9AAQ7xrwvrSdJoJuMUFwrTn6goyQb0X2nfHmnAZbT0fweAM1dAEoZXmLST9FERu97K05dljrelXwqoJFzth4WA1rMEZqtpn/sDH+DkIircz8YTjyuTdbOUaSLhq0zLAUMUw2H8WQwlRmoGQr+51qjF8HKepe8Sc79OAkyG2VWO2wbyieqCK94suIoXQJ/zXBENedTt9/Oyin4KbjXFs93GGzUYDHuaO8J9d9FNwotg2NFpypKDqvpnhDpLvA2GgSJIbyls1zxDnDIRztWt/E5QUG83HWxokYOkzFDfQ44O3/pdgSzG8ZDDMp/YOyZcUk34RvPtK9D+uFFbttlOHBH83CNmP9Zv3A2W7gIYMJEZ+2PB+Dq5ceX1jwz8QcCf2ky+v+GbYcHU2j1sQsRkVztr5qUvHPwMw7hXHJD3CEJVgFNrz5ne/HKA9xGxkr5psWUV2fgsEnulAWzXmr+rO/TXgqRLchyNEsBBB3rDylVdUzw/VGN5HwTYUucCuc/YzfwOcKFqZD2cwYhYdZv98Xd36l8Ce2Goc9jiCSryQX8eGUobK03kwBgYLgyErw38+0PYUwOxsE6MGG/FkzuI36fsXeSrM4GoBdempMNRnGpP0fRDdbNR04zMYsfsOLpf5VWa3hAtRQmTMf7JZNSfpVxmlEsSqsT6zGEmwqRoIwauzjUn6PggqI2XYzafYyZdV8xp/F2yp6lofrDHVWXLhG/4uq1uB0ABqcv7A7dAkRDMNRozM2AzzjcBt1U/qxj3NttTT94oL15D8pihbDQuiewfc7q3yNuEnbcLIy85/nSCVAKYYRUJ0907l69tQJLOoBMuFVSMHfh9sfctXlZov+dFzoD+Le7xsFskAj85yLfyPADRP1V2FUbK8XpftIpkUClLJ+dtXNhvAVc+6dagHojUU5eiC3F8JUQy9qKv+2jB3GUOCmJ9+p5RRIJtLfKunGytRhUXer+VBBYlEg9vr5jmmm3cuG6Ptr6yM/S5IsCaOe/FeiJliszwcQ4+rPl9y+dUUqiBT2t6WzbwcCqvQpuF88eWVo98D0cLrRvahVfF8X9T4eyFYhAyu25H/o5zR22X3i+pKjCBKDttbSDgJb8dr8l3E6QaZgPTb1G3kBkHQrYtrrygvlssi6TneICmWm13+xFqj91ebSNYnJF78N9zrvCQMVsR43L6uLlreoC5a/J+UrZhq4FEydE+Za1EL2iPk/4l3+nkc3b0nq1dB0tpec5DghnLxS+oDI/verbHUgFl0EEMoAvHsMA45dIP47DNpnyifr6ET+gttzk7lKnYYbeRo3C1cXelYq+02dqBs1Wn0IvHhu+YAwziFpn43X4D5+4kG4n3I/zz9oSHYAoJr4MAoKMq6NioCbeqUeJVnenAE6Xl1U9U4hiraDP+AAW3PZ5hDOl+lHQwnbPSn1Gx4IgLz2rILoO246rN8iKFb/8v+RMg5tufD8OhbvYwCNSikKSQieXmZHvtjjCHkFp6PyM6Jodhir4eIMna39VD/RpTL+QSGKf9E1dyMGLrV9cJtOBI9EaAGed2PmgVgjqHYGPu12sN0eSnP27fuhIpsfTyXlyWO/U2SPITUGEBNRcJyOf+9yvFO4vf4uzxJ5G1s1/KsGS3aiefKRf0FUMHYc4bQ+Haf+obg4+IzGN7UN2RHhxOfUuLQZtdfWnqcUh9MZvHb5I8jA9kw+8A7q0d2N49QSrlXZi+bD+d/+MKb9/EOCVPuf6itWIYOgVc5YSX4BT301Cmse0lLsJSKwz5JpSv9ViKMY9kybvGw2kBoAvYFPvDXF5B9vnTxhB721SzOlwuDmZmMcUpoJmgJa51eSkrfXw7g62NNQrRlNmXQP9VoF5bjM+7MVSHje4r56pN9AsMN01l0sRSbnzd5liyIb1Etx6LYt3i5y/LinUHGLz+XW0BwWwrAT0JHOY+vu93yxvz4QNT1oS9/BYZQP0RU2ZpQ7azcBVG6FOrGWehVg3HVSXNHtL96/1WLH3MMoQgUa7SKD8vWYjsVuoeqKQ2FUxUSBHqr25JmU92GJX6GIV26aPud0mNJySHDmUEXXvXcujdaYbCEsSZe2bIeZUqqZ/HvviozMsfwnav5F6AY67kFAXAHbvKe2HfzfFsYgqyo7Sl5wQmt1iOw1ceTcbsefZxyu0pYyMktvnNqTKeB1s6+ym9BH2qsyCMM1c/5WTyIUmDNWul0WKi6ktC/v5m+haH4ZHO+vxzyhj/KW26rYBv8q36R+Jet/5XYEFuk3LpqoQo51r4am7XW3o/sUmu/Xi6Xe7hz0sb5HjDpv1XjWYm4d3JfDNLCUAgF1vik7Kytcap0XUBb9zQKHJz6teuQgfjiVP1KbDDtu7YSMHw3wtCX/iEk02PUXSlrWKsAV65qt2RbfgfFJobdT8o7AyoM61qgndPaCPGx5sCZaFfKfj81UlNg2Hsxp/kZglKCfuLXpVpbwTrl8nBbrxrm78PAjxaOTQzFyluflCNyKwxrk1Nsmb3cVbCk3Uqo7F3qleresD4+fCP67oUHGIaH47Y8Hja1PIbNaQ2xB9WDTkdKoVuAhw311MQQDNtmy34Hw2pnJFOyCnjznmQFMAENhwfmA7J066uBFaaSpgaxw+1xaPKGSRRu7hZsAJvVo/GaGIq9ac03amNYN93JG7NacB/Vz/REL5ix1acPLd0q9YTGH8LQrc7wBTINcMG4Ekr3GLZOX7bK9GEoiB3kWwPuXW/hMmGXCQi6e5smq7b9eQy7tAbFoc1epODKqynRHSplbfdr6AyFXrUfRkpzfcm6sOV6hKnYAKWYnscQ5EWr6qPgnVtswAjQ4yebGFb3oitIW7K0xlCsjj2MeokPo2CG0ui7cYPSlkPGfh5DIHza3GKhuDtzCiE3r05VYFjJAaDKpp8ja5/xxxaGYg8fzyPLqqMTWtZfdf4K4li9+nkMoemhiRFMvf7oGGvC7FWzsV6bfvmRtOS+vBkDf2xhKDR+W+P2waaKOCSe1d1imGGoxyl9AkO4UKJxGcGxp1YprsjvTBuSLmn1KWOBPv7cwlAOTnh0qwoQh8LhvdsrlArLmWvN+wkMX07CY6p+f2D6Jp86+CUEmXZKL6RJcWIt1aiqtUeHMISedO+eTs9FdbBuKfZVu+PRjbSe38HF2lXe/zMYpkxwYryDV6RHVrsLxxUmi3LYX6W/hVNp002gJm1HoS+05Xm9261PjB3CfkkDbpIgvPMOI6PZulR4O+Fllwau+A1Mhqlv4A5i0I7xMnUjNy1KQWPsXK07AOdj3YSaAYYwFBYFXIYUb49nIux+NcRfCBLCwtVxexNbqIe1yTYXm1uh2oXgVU1f4b7Q4lYlkDoYCh9bbCKzbqfTLWQch+YKZWMTxsPQkmZOc2yZW4JzzHkcx1QY5qQZ8A/kJMUaWKOQ2hXuey+Gwu+FuLJPqe3zyn5JPjjFwRfEqdVe4chBeHqWsPDbOKHCnKebuh8fSoJoO6C+CyHJLV9H+Qfe0xdWcxkEpre2HVOEjMoUCzhXi6aoDzzahsbQc7dcnbcDMm1XhszzWFg2QkPZ4mZxzyPxsame8pXtONyqzA63uBz3B6BxofE1ux5Oq07iJ9qUoYwExeeD/ktyOcvf2fH+3sgpjjHxmOx7bw0bDE6rNpS9h9YDAYz265oekG1Mu29IxS/73pqS8fYJmCp1NzswHU5nRmm2e4s9blPikNN+2R1Y/P2w41/Q8hrl19ATcgI8vh8v7D/SsUmBEyC7nmxO7B9vAsuJ/XVdTEGxj+e5pPtJaAiITGhD5yv7st0f6XJj4RW/N1hLw+Mn1vClkDg2d9jr+RTCuDPer2x/NRQg5UCPQ4iL7f//IShU4PokRyl5Xrj4Xc2gz0CW7HY/r4z/wT/478P/ARSirUGcnZTOAAAAAElFTkSuQmCC;" parent="CuSs9hA_2iUlgKDZP2Dt-28" vertex="1">
          <mxGeometry x="30" width="65" height="65" as="geometry" />
        </mxCell>
        <mxCell id="CuSs9hA_2iUlgKDZP2Dt-26" value="Postgres DB Cluster" style="text;html=1;align=center;verticalAlign=middle;resizable=0;points=[];autosize=1;strokeColor=none;fillColor=none;fontSize=12;fontFamily=Helvetica;fontColor=default;" parent="CuSs9hA_2iUlgKDZP2Dt-28" vertex="1">
          <mxGeometry y="65.00000000000003" width="120" height="20" as="geometry" />
        </mxCell>
        <mxCell id="CuSs9hA_2iUlgKDZP2Dt-27" value="Persistent Volume" style="text;html=1;align=center;verticalAlign=middle;resizable=0;points=[];autosize=1;strokeColor=none;fillColor=none;fontSize=12;fontFamily=Helvetica;fontColor=default;" parent="CuSs9hA_2iUlgKDZP2Dt-28" vertex="1">
          <mxGeometry x="5" y="84.99999999999997" width="110" height="20" as="geometry" />
        </mxCell>
        <mxCell id="CuSs9hA_2iUlgKDZP2Dt-29" value="Postgres&lt;br&gt;K8s Service" style="rounded=0;whiteSpace=wrap;html=1;dashed=1;fontFamily=Helvetica;fontSize=12;strokeColor=#82b366;fillColor=#d5e8d4;direction=north;" parent="1" vertex="1">
          <mxGeometry x="497.97" y="277.40999999999997" width="40" height="88" as="geometry" />
        </mxCell>
        <mxCell id="CuSs9hA_2iUlgKDZP2Dt-30" value="" style="shape=image;verticalLabelPosition=bottom;labelBackgroundColor=default;verticalAlign=top;aspect=fixed;imageAspect=0;image=https://www.pngkey.com/png/detail/38-382292_graylog-2-3-logo-graylog-logo.png;" parent="1" vertex="1">
          <mxGeometry x="420" y="422" width="130" height="44" as="geometry" />
        </mxCell>
        <mxCell id="CuSs9hA_2iUlgKDZP2Dt-33" value="" style="group" parent="1" vertex="1" connectable="0">
          <mxGeometry x="599" y="444" width="120" height="66.45999999999998" as="geometry" />
        </mxCell>
        <mxCell id="CuSs9hA_2iUlgKDZP2Dt-31" value="" style="shape=image;verticalLabelPosition=bottom;labelBackgroundColor=default;verticalAlign=top;aspect=fixed;imageAspect=0;image=https://cdn.solace.com/wp-content/uploads/2020/07/loho-elasticsearch.png;" parent="CuSs9hA_2iUlgKDZP2Dt-33" vertex="1">
          <mxGeometry x="10" width="90" height="44.4" as="geometry" />
        </mxCell>
        <mxCell id="CuSs9hA_2iUlgKDZP2Dt-32" value="Persistent Volumne" style="text;html=1;align=center;verticalAlign=middle;resizable=0;points=[];autosize=1;strokeColor=none;fillColor=none;fontSize=12;fontFamily=Helvetica;fontColor=default;" parent="CuSs9hA_2iUlgKDZP2Dt-33" vertex="1">
          <mxGeometry y="46.45999999999998" width="120" height="20" as="geometry" />
        </mxCell>
        <mxCell id="CuSs9hA_2iUlgKDZP2Dt-34" value="" style="shape=image;verticalLabelPosition=bottom;labelBackgroundColor=default;verticalAlign=top;aspect=fixed;imageAspect=0;image=data:image/png,iVBORw0KGgoAAAANSUhEUgAAAY4AAAB/CAMAAADPY9VGAAAAhFBMVEX///9GUmQ/TF85R1s2RFlDT2I7SVzJzNE+S165vcPV2Nzt7vDR09dyeYYxQVZHVGf19vbAw8iKkZuqr7aip6/4+Plhannc3uFNWWqytr1ZY3Pm6Op6gY1ocX+BiJPg4uWXnaaTmaNUX3Ceo6wsPFOHjpl1fYllbn1+hZBsdoQkNk4YLUeVSvb0AAASL0lEQVR4nO1daWOyOhMtWRAFEVRQcV/b3vf//79XFGVmEnYrfarn072PFEJOkjmZJXx8vPHX4AVtt+CNBP6JHVzXjTbztlvyxsdMCmbEkNZh8SakXdiRMFKww6ztBr00ekwaCO6w7Sa9MByTsGEYYtV2o14Wc6mwceZj33azXhUhU9kwjEOn7Xa9JkZCx4Yhp+89SAuwB5qlKgZ/L1ctYGjq2TjLq/f24+mYZLJhsK+2G/d66GvteDI9em237tXg6+14Ys3Dtpv3YgiiDDt+hei23cDXwpjnsXGeH2+x+0QoIpfuz/mm7Sa+EoYW6nwmo6mFCXmL3eehh0WuOfTOtt1AfLBF2418HWCRK5eXf/SxOXGdlhv5MiAiVyS7jG9MUtRuI18GRORax+TfJ9igiHdk8CkgIlfejfaRGPi32H0C5qjPDT6+/2Jja25uW2zlywDPAbkDc2BErPlb7P44erjLhQ9/xFaFndpq5OsA6yfWRz++xe6TQUQuJ650siPZtdPIl4FHRC5Nq3qL3acCi1xp2PQC4s0y32L3B0FF7ki5gohd68Fi15s4fnc063ac+ZtoKnJDTZf8nNgNOtuQu4LHEMKVy03He9jN/0UQkWuqk+NDEbt93TV1nr0dCOzEl5YwF6Pn72289dMfqcc3TVfQxWA7ZHo8JClxvnAtQwPG3eVIMWA/CHv2xX9JGrKariA2mstOWOxOH/Bkx9CScX0AF0/abgaT8VJwpsjJduDt1HQF3leH5hp3ncbeV4WvZsojQj4bP6EYnj/cuZd2sN9Bx9jVdIW1U1fSLeGjqcHt8Fw2DP6E3Y0v7pbrl9AxOem6RRqKJ8Qz8veKFbHW1S1AuE8wHkAw/hI6zkMk0mSCSsun182INW8mRfLyHS8NeEaS3W+k48PbWupIlaorBIvdJJheE0SpScYsJuGEeYBxKsavpOOscXQTRNAOeaTY/YbUMis6DberfriT4laX+JSwyi+l4yPQTRCFDyJ2B/Wft4Z3Mhc3D7K97hwjFiud5+RI/FY69BNEjPE1cyKuxvpblQC0QyYp5FmPQ86eslb9Yjo+7JWaoUv52BBPe22xe0xnh9Q4XJwvK0MoBJ5texUO5wi8K/S/VqUjfvr5+aWf3ggzWk+uhDao2D1m3KkQwHRwRcLF0Klcr7Pph1MmBrvwNBw5tFcmToK71ZnPhsvdYGAYg9331ge3tGfdC1ZgVCx6t7+PNb59++80Emd3V6HBXdNYeunPMTRt9eDvJetilAHoTBX1ybG9pmJ3Uu5JCsKUjrL7C+dLnvdsl7+TZyFmiumwg2bJ0hUXHJLMVb/POUvEmpSWkMP7CzuHiweZw9eV4gYrftH/kv+RSfPsjeTX4Soj72NyuF8tDpo1uwt/35R6v85hS3ti/km9SJJhbkMsdms6MgJwm3IrnrN06VCRTIRwsPSTe8pp/Frrb0H/wLqXmzrZNXeJP657G3fJePQH94EY0wGnt/xWmwtFTzmNGETSnFLnrbegDZUDdDeHpI5qV5pifMpKrQ2OrnYPL8UwJfNGhyE6ca63bpspFtf5VIEOdlmQNwJ0f0wHXCa48gYeaG3J/WxcQC75id5KMegsQsN38RDP7jJtr1msz+wwsw6IR/cV6E7HuQdnGQ4xfl3IeuXpkLvz66/gILzQYQ/ATZUNM9yhlfO9JfFWZtCrt/TVTVRFMMdvUlPsriCpRd6WuWrSUrDp7c/vdMholum5v2rFCrPD4M55bqDfL+PzK22TWmYBX88ttRhvkxZJviIWZEP5wPGPDeGjlqcPBnvlNF96BLtc9xaLkhb0wXqSffnF1VaFDmtDFugrHXACMNIHAZg65bIEJ+ndzIh0hzI/UI1mgEvWrFpRNFS/LuU+j9MTHOqScSE4ipSYScF7P4cE0D1xe6vQYexIAeuVDpgMxYkJhrcvZ12hQ1UysmCp6xUUtF38q6gldj/RK/LBOJOQGRybfHrsOr3O/hPahmTnotJxVrdn7shuSpyf5LjmBfAXad4gyUvSismrMQXxH0aGJAwN8TK90SFphyRTZ0j4kBFU+I8QuyTRVPLpWL/G2rCl5v52USdKXzlpHaWDse99Z+L4wymyJLFpne/HF5zA+vY5vuNDGXO3i2Ik2gasL8YAt32a3rZUWEgpIOcnPDpXZDZzeNfeI8TugljbMyEjHSFwpFlgm2GDjIvr9CB08NVt2trobaDhzXaSaOiQnO+iMAyjRGqCCS7QZrkHmlzqqAr1lCQrRPom6JPeQubj6wGe3blyNJDkO9WGBCB2jCWxnY7Ba54RpgNJvhV4G6jNK9DBrP5oYntBEHjJ3mCUkoznwD79oVTf2Bqjx6bIBnj0lDGoHmySmVXrbCVfdelLPqCEgG6hqdrddExdtqqIDqww4C7BcNOFF/RoAR38SzGRc7DSwXoYGKYr1TVDnSyXmI/5FPeWBcX1ntQ81xK7XV1MmBtj5Ij6ztYvQdrCy3qJZwfe3h71TovSdFg6fz/whAiwJk3gs0pEsCf6Pa4coHXOIdMDmQhSbl7vbCX91pmHsBlgrbIo6WkfX5KGIR3UgsJdAui6snRY2tNYgByxNuk/gxWwlIMkK2tADtD8IN5baQBLm1H1XBGdnU7/S765TxCwA1PLStLOvMRMIB2CJMLArHBgd0vSYW60zQfWC0pPIDzLOEiyT0kifJCT31B0g4jdmmkf9tDUDQ0e3iYCGBKqKyIdnZfnw135lIi0YKeVQeXowDIfAOSap7svYFLKBA8CTdph+hpwyQ1wn6MqtB7OlqPremn0vnUr1t0RBaOG37MRxvD+o9zZmA7FMxE1oCMzUOwA18ZdyMERVMJBMtJbjuQGIeRzgocumgMrInZrF2b4S67OEJlEfeDmPd02JwBUTTEd6uYrbDI7suwx2L6laU5AfJTYkelELoB1gv1KqIOhWip2N4VPzoSzUAlh171+1rmlFLHSBXSoTvsGdGSuVUhhimRdsUGrePEYJSJXEf9o/02tPhQ3Y2JZmuRFOSeFkGtWUcF5Z3cQOlQT2oSO7Pw+kJ90W9GA3GLFqQQTbMfZWPFeo1eZ5yTm4pHb8Gwlp08JufjedPncOlA6lFWiCR05tUXpynQzVyA8R+Wd7u9pAfk8ontCC96FqF0B5gCtfm5Ybn4mBHs5YnVwKGbiAkKHUBIkG9CRZ5BB91wDP146SKVR+M6kC9kkjnxSZ94UmnO8XP2A2E3RGaDMjjgjoObseBod9vR+2VVcdvRbQz2IyDUvTbBp+gjyhxB1BXf9EyJ2GxdkzCP4MPGBbYclssFbogOsTVfXBNiKFDtISAF5Mg1s6i5EHbtFJhv5Q0jJ7aBxep4NHf/x6wDHGRt3chC0RAeYDSx+/XS8F2cZ2yTMfdvezOnOECptG/sSIec2XvqaiN3b28GwZgdlnOizFQFaoQPU8sX3BWHZ4izjzALyCQlAokLlGSIRiStyJhlrXgw8xf2fbrwNq8hX3QodIDwW61qQxFzoICFRPJjv2SG+PJSbi0OHKGvwoWI3BlSrXaRcCqVCO3Skob/YMwG26ZrcRIwl7jvkFadn78F4AXY2ox1vh1jzxuXmJzw74AhSHOwE7dAB/DjCgdvCIi8eEbkWdiSscty35MgF+GeY4tJid5y1rEHPa7yRAW0uSlesQ0fmFro8Hek9rD2gtyj1OCDhPcNCwtQm2QzwTCs8PVDYfF1L7NqGHGpDJA6M+sezAXkq89+wBh2zzL13eTrSUIoM0z6kuT4K1PPuTdR3Pax2kTVHygv7cIZ1xK7PDcv8nCmrDxwT16i/A+jOPAnlep8adMBxhiZ9BTrARlnmtQBjrgk64bFM+II3xJ5dlHPuEc9uqbOVLmNe8sGiixatDtwGJhIOzmlzoXGR2v7n9Zk16IAxW7wWVqDDV8Z5/HIFPTDvC6n8kYWaTQ6UBpPAQwoKN3xUXezat9nGuAyPs95kPZ9P/E2InFaHa3wNWTwrIv089xdTnnw4oQYda5RTd8uEjEdbBTpsagWMMg6SD1+NTONoLPGHwHdCedIkeQi3pkwEDA7KOOnWlFODc+zrZzehiDxjki/HztwObHs+6ey/wkGc8pm8ew06sAOfT0/bzfArJDm6hW90VBNzypSFeUdlgtzTvy/Auesw23OOmMKe4+piV5tYlPVCZJWVJjem0W5qWMJMsm8b0IHK2+OSNYsxVpUONQG75OmdvnIQiAXNIzmiErYbOXbJ4XvkINFCsevlf9Po+ux0QfQVt67Er9GADl0qLs1gL6RD/UZTiRKiC9Y7OjDR5xlx62A7sL3Chqqq2O3pbB+GgLuAWYGbvQEdH5p5WpkOmgVY4cgI+1tJPoUrD97VgVoBvGshcS7s9C0Uu9u8769d749Ve1ejQgCa0DFT21KdjjX1wJY/riVY0GIBeBQlPnYEuguRMSerlUfi7wVid31kuSeLSeX7z71d3oRqQsfHUpkf1ekgo7hS5CegxZjoA1skVyEd5z283cP3nKlBxlzY+6lSZny/tQjVDXuwsTILllhS2F2PDk85/KMGHTSEXSnw80UaAKMbeHpAmtFqRSNdlU/ND/yFFOockZYb6oeWvZW6fCxLyGPCHhhJFeg4LxekYv2i40F6fIljUVGGfJFju08aF5DoH/pzNO/gIogO36PTsY5n13P2felyM9aWZ1gmFyLcZGf7erOvgXu7+nz9+Q/caOvfR+JJDm5Qn/9pZP/YOYlYNMeFTZZpChG/dNe8X6+mNKpA5d352W5dly+wpSfpOqj3sIQCswCpa2XEkLOVyh5/5K398Xa1OONrO+527II8MW8y2wwXFxy3m7GPDqW+nQajPRHGy/vxw/b3x88w/D4N97NrI+DNSiRYonhR7tcug3PXW+RsXFIaCK05FtHwjGPkKBHkKXMyPZ5y/tFjETQ4cBxmyOeXA15UqOQr9LBRdnkfEtFwtcITkmZV4XJznBz09wEdd7nlgLc9mhmhBYssLiCSuMb+kPSv0B5RGf4BXv9+ySnBzwJQCvkOkrublqHipjWWZjDYhIq6gM1GPKnqoarY/UuAIzW3HBBIHsmgpMDuQhg4RyIa/oCkrurQ/6FT8/8BIBd7brYbvFAyYCI84qVP1/o5/iG1OShQquatOMSa1zxb6R8EDBTlZpDg2JBkmeV9cCOBvM6g7A9NG030kZytlF0W8bdgf8MdWd6mg6YJomUNHQsCSUWVG0DqolOgND5kEplocJDo70eqirvoeKfcHdcKO5qmaLxiRwsIqqLjdIDxgGeYaYuXSfhq8IfFrsM+h+OuvzlNsacn76xnWk+J55GHZ046C9BOEHKI/l2j5x58av5vhiMkMzm3yHFAVp6AwQUYjHrhUYwUKldkBEAoBdtyzQO7JLPu74pdRxuzyV0QqNShnYMK0y61wAmQAABzCv27NuKFB0C9o8f+CejpyP3g6LJo6UAbPhD6Q9FTYLOR911b+UZGQGYJ8D8PLR1unrYnXj1NSuU+QyrNofseJK+izB99TjAuN693ls+/AA0dMt+xPsJlS5qYCLonyCpFxy2AzBA7y9mb1cynfBOlFah0mFG+pcQ5RLocXqSt5GcqoZCDERyogG6o1U2kUNp4/gcAnwN6eigXm4JdL6nY0DkakfEAPnH0JQJwECyaNVpvAI0aP+T7gr8Qnf+sW7KXZNyNCj9zGJCabF3aKNp/i9TuIl86sPFQAWsPmKYpLs/4vFkrCPx9P5Lu4eCyaDUqoVioJTfM5cgnQLMAKFokrazN/foT7G2w8ehef+4O6Zkaf9eWV4Wt5lKanAD5UIC0wiEo63496uxD+qyDUD/A8KYDgS5WhQDZakjpZgEc8ahJqb/iX4yZ/xAqsgG1l51zBFlKR2q9MnOgS5yS8io4ZuX5ZdGR5hOpOdk6OlIR+5l1+eCvCt3q6BRmJmOAYkV67J4WQIktMy5/pQhtITJX9Aw6wEaiFB2pAP7OuLx5nfkfQqeaMYfb8szVB9KRhm1P+nWRFZ488FKgHxoooGNZkY50dpy0l0v2thwISm1NLh31Fyvtl0xk0/Pf/h5OFcx5A1Ousx3SfBsOBeNDiSrVK4ALvkwxJRS6KntS7P5s6KkJ7KFLP7eTRUfqMddVrqt0pNtAsmuUpjv4q77Dxgj8r517cAvxX+okWeccO3jH/1LLz930n12Xf47fVqMAdjFAkUevBOCJ7ADrP5xd9cYbb7zxxhtPw/8BmwULn5CEXsAAAAAASUVORK5CYII=;" parent="1" vertex="1">
          <mxGeometry x="425" y="520" width="94.02" height="30" as="geometry" />
        </mxCell>
        <mxCell id="CuSs9hA_2iUlgKDZP2Dt-35" value="Graylog Service" style="rounded=0;whiteSpace=wrap;html=1;dashed=1;fontFamily=Helvetica;fontSize=12;strokeColor=#82b366;fillColor=#d5e8d4;direction=north;" parent="1" vertex="1">
          <mxGeometry x="370" y="400" width="40" height="88" as="geometry" />
        </mxCell>
        <mxCell id="CuSs9hA_2iUlgKDZP2Dt-36" value="Sentry Service" style="rounded=0;whiteSpace=wrap;html=1;dashed=1;fontFamily=Helvetica;fontSize=12;strokeColor=#82b366;fillColor=#d5e8d4;direction=north;" parent="1" vertex="1">
          <mxGeometry x="370" y="500" width="40" height="88" as="geometry" />
        </mxCell>
        <mxCell id="CuSs9hA_2iUlgKDZP2Dt-37" value="ES Service" style="rounded=0;whiteSpace=wrap;html=1;dashed=1;fontFamily=Helvetica;fontSize=12;strokeColor=#82b366;fillColor=#d5e8d4;direction=north;" parent="1" vertex="1">
          <mxGeometry x="560" y="450" width="40" height="88" as="geometry" />
        </mxCell>
        <mxCell id="CuSs9hA_2iUlgKDZP2Dt-38" value="" style="shape=image;verticalLabelPosition=bottom;labelBackgroundColor=default;verticalAlign=top;aspect=fixed;imageAspect=0;image=https://www.docker.com/wp-content/uploads/2020/09/node-docker-logo.png;" parent="1" vertex="1">
          <mxGeometry x="360" y="179.03" width="90" height="43.38" as="geometry" />
        </mxCell>
        <mxCell id="CuSs9hA_2iUlgKDZP2Dt-39" value="Personal&lt;br&gt;K8s Service" style="rounded=0;whiteSpace=wrap;html=1;dashed=1;fontFamily=Helvetica;fontSize=12;strokeColor=#82b366;fillColor=#d5e8d4;direction=north;" parent="1" vertex="1">
          <mxGeometry x="300" y="162" width="40" height="88" as="geometry" />
        </mxCell>
        <mxCell id="CuSs9hA_2iUlgKDZP2Dt-40" value="Personal&lt;br&gt;K8s Service" style="rounded=0;whiteSpace=wrap;html=1;dashed=1;fontFamily=Helvetica;fontSize=12;strokeColor=#82b366;fillColor=#d5e8d4;direction=north;" parent="1" vertex="1">
          <mxGeometry x="300" y="260" width="40" height="88" as="geometry" />
        </mxCell>
        <mxCell id="CuSs9hA_2iUlgKDZP2Dt-41" value="" style="shape=image;verticalLabelPosition=bottom;labelBackgroundColor=default;verticalAlign=top;aspect=fixed;imageAspect=0;image=https://www.docker.com/wp-content/uploads/2020/09/node-docker-logo.png;" parent="1" vertex="1">
          <mxGeometry x="370" y="277.40999999999997" width="90" height="43.38" as="geometry" />
        </mxCell>
        <mxCell id="CuSs9hA_2iUlgKDZP2Dt-42" value="" style="endArrow=classic;html=1;rounded=0;fontFamily=Helvetica;fontSize=12;fontColor=default;entryX=0.409;entryY=-0.049;entryDx=0;entryDy=0;exitX=1;exitY=0.25;exitDx=0;exitDy=0;entryPerimeter=0;" parent="1" source="CuSs9hA_2iUlgKDZP2Dt-38" target="CuSs9hA_2iUlgKDZP2Dt-23" edge="1">
          <mxGeometry width="50" height="50" relative="1" as="geometry">
            <mxPoint x="420" y="180" as="sourcePoint" />
            <mxPoint x="470" y="130" as="targetPoint" />
          </mxGeometry>
        </mxCell>
        <mxCell id="CuSs9hA_2iUlgKDZP2Dt-43" value="" style="endArrow=classic;html=1;rounded=0;fontFamily=Helvetica;fontSize=12;fontColor=default;entryX=0.409;entryY=-0.049;entryDx=0;entryDy=0;exitX=1;exitY=0.25;exitDx=0;exitDy=0;entryPerimeter=0;" parent="1" edge="1">
          <mxGeometry width="50" height="50" relative="1" as="geometry">
            <mxPoint x="451" y="308.875" as="sourcePoint" />
            <mxPoint x="497.01" y="312.00800000000004" as="targetPoint" />
          </mxGeometry>
        </mxCell>
        <mxCell id="CuSs9hA_2iUlgKDZP2Dt-44" value="" style="endArrow=classic;html=1;rounded=0;fontFamily=Helvetica;fontSize=12;fontColor=default;entryX=0.409;entryY=-0.049;entryDx=0;entryDy=0;exitX=1;exitY=0.25;exitDx=0;exitDy=0;entryPerimeter=0;" parent="1" edge="1">
          <mxGeometry width="50" height="50" relative="1" as="geometry">
            <mxPoint x="537" y="187.875" as="sourcePoint" />
            <mxPoint x="583.01" y="191.00800000000004" as="targetPoint" />
          </mxGeometry>
        </mxCell>
        <mxCell id="CuSs9hA_2iUlgKDZP2Dt-45" value="" style="endArrow=classic;html=1;rounded=0;fontFamily=Helvetica;fontSize=12;fontColor=default;entryX=0.409;entryY=-0.049;entryDx=0;entryDy=0;exitX=1;exitY=0.25;exitDx=0;exitDy=0;entryPerimeter=0;" parent="1" edge="1">
          <mxGeometry width="50" height="50" relative="1" as="geometry">
            <mxPoint x="540" y="316.875" as="sourcePoint" />
            <mxPoint x="586.01" y="320.00800000000004" as="targetPoint" />
          </mxGeometry>
        </mxCell>
        <mxCell id="CuSs9hA_2iUlgKDZP2Dt-46" value="" style="endArrow=classic;html=1;rounded=0;fontFamily=Helvetica;fontSize=12;fontColor=default;exitX=1;exitY=0.25;exitDx=0;exitDy=0;" parent="1" edge="1">
          <mxGeometry width="50" height="50" relative="1" as="geometry">
            <mxPoint x="341" y="204.875" as="sourcePoint" />
            <mxPoint x="368" y="205" as="targetPoint" />
          </mxGeometry>
        </mxCell>
        <mxCell id="CuSs9hA_2iUlgKDZP2Dt-47" value="" style="endArrow=classic;html=1;rounded=0;fontFamily=Helvetica;fontSize=12;fontColor=default;exitX=1;exitY=0.25;exitDx=0;exitDy=0;" parent="1" edge="1">
          <mxGeometry width="50" height="50" relative="1" as="geometry">
            <mxPoint x="342" y="298.875" as="sourcePoint" />
            <mxPoint x="369" y="299" as="targetPoint" />
          </mxGeometry>
        </mxCell>
        <mxCell id="CuSs9hA_2iUlgKDZP2Dt-48" value="" style="endArrow=classic;html=1;rounded=0;fontFamily=Helvetica;fontSize=12;fontColor=default;entryX=0.5;entryY=0;entryDx=0;entryDy=0;exitX=1;exitY=0.25;exitDx=0;exitDy=0;" parent="1" target="CuSs9hA_2iUlgKDZP2Dt-39" edge="1">
          <mxGeometry width="50" height="50" relative="1" as="geometry">
            <mxPoint x="256" y="280.875" as="sourcePoint" />
            <mxPoint x="302.01" y="284.00800000000004" as="targetPoint" />
          </mxGeometry>
        </mxCell>
        <mxCell id="CuSs9hA_2iUlgKDZP2Dt-49" value="" style="endArrow=classic;html=1;rounded=0;fontFamily=Helvetica;fontSize=12;fontColor=default;entryX=0.5;entryY=0;entryDx=0;entryDy=0;" parent="1" target="CuSs9hA_2iUlgKDZP2Dt-40" edge="1">
          <mxGeometry width="50" height="50" relative="1" as="geometry">
            <mxPoint x="260" y="290" as="sourcePoint" />
            <mxPoint x="310" y="216" as="targetPoint" />
          </mxGeometry>
        </mxCell>
        <mxCell id="CuSs9hA_2iUlgKDZP2Dt-50" value="Personal&lt;br&gt;K8s Service" style="rounded=0;whiteSpace=wrap;html=1;dashed=1;fontFamily=Helvetica;fontSize=12;strokeColor=#82b366;fillColor=#d5e8d4;direction=north;" parent="1" vertex="1">
          <mxGeometry x="300" y="70" width="40" height="88" as="geometry" />
        </mxCell>
        <mxCell id="CuSs9hA_2iUlgKDZP2Dt-53" value="" style="group" parent="1" vertex="1" connectable="0">
          <mxGeometry x="360" y="80" width="86.38999999999999" height="75" as="geometry" />
        </mxCell>
        <mxCell id="CuSs9hA_2iUlgKDZP2Dt-51" value="" style="shape=image;verticalLabelPosition=bottom;labelBackgroundColor=default;verticalAlign=top;aspect=fixed;imageAspect=0;image=https://sanjaysaini.tech/wp-content/uploads/2020/06/how-to-dockerize-reactjs-app.png;" parent="CuSs9hA_2iUlgKDZP2Dt-53" vertex="1">
          <mxGeometry width="86.39" height="51" as="geometry" />
        </mxCell>
        <mxCell id="CuSs9hA_2iUlgKDZP2Dt-52" value="Static Assets" style="text;html=1;align=center;verticalAlign=middle;resizable=0;points=[];autosize=1;strokeColor=none;fillColor=none;fontSize=12;fontFamily=Helvetica;fontColor=default;" parent="CuSs9hA_2iUlgKDZP2Dt-53" vertex="1">
          <mxGeometry x="3.1900000000000546" y="55" width="80" height="20" as="geometry" />
        </mxCell>
        <mxCell id="CuSs9hA_2iUlgKDZP2Dt-54" value="" style="endArrow=classic;html=1;rounded=0;fontFamily=Helvetica;fontSize=12;fontColor=default;entryX=0.5;entryY=0;entryDx=0;entryDy=0;" parent="1" edge="1">
          <mxGeometry width="50" height="50" relative="1" as="geometry">
            <mxPoint x="260" y="280" as="sourcePoint" />
            <mxPoint x="301" y="118" as="targetPoint" />
          </mxGeometry>
        </mxCell>
        <mxCell id="CuSs9hA_2iUlgKDZP2Dt-55" value="" style="endArrow=classic;html=1;rounded=0;fontFamily=Helvetica;fontSize=12;fontColor=default;exitX=0.5;exitY=1;exitDx=0;exitDy=0;entryX=0.42;entryY=0;entryDx=0;entryDy=0;entryPerimeter=0;dashed=1;" parent="1" source="CuSs9hA_2iUlgKDZP2Dt-41" target="CuSs9hA_2iUlgKDZP2Dt-35" edge="1">
          <mxGeometry width="50" height="50" relative="1" as="geometry">
            <mxPoint x="300" y="460" as="sourcePoint" />
            <mxPoint x="350" y="410" as="targetPoint" />
            <Array as="points">
              <mxPoint x="350" y="370" />
              <mxPoint x="350" y="450" />
            </Array>
          </mxGeometry>
        </mxCell>
        <mxCell id="CuSs9hA_2iUlgKDZP2Dt-56" value="" style="endArrow=classic;html=1;rounded=0;fontFamily=Helvetica;fontSize=12;fontColor=default;entryX=0.364;entryY=0;entryDx=0;entryDy=0;entryPerimeter=0;dashed=1;" parent="1" target="CuSs9hA_2iUlgKDZP2Dt-36" edge="1">
          <mxGeometry width="50" height="50" relative="1" as="geometry">
            <mxPoint x="350" y="450" as="sourcePoint" />
            <mxPoint x="380" y="461.03999999999996" as="targetPoint" />
            <Array as="points">
              <mxPoint x="350" y="560" />
            </Array>
          </mxGeometry>
        </mxCell>
        <mxCell id="CuSs9hA_2iUlgKDZP2Dt-57" value="" style="endArrow=classic;html=1;rounded=0;fontFamily=Helvetica;fontSize=12;fontColor=default;exitX=0.5;exitY=1;exitDx=0;exitDy=0;dashed=1;" parent="1" source="CuSs9hA_2iUlgKDZP2Dt-38" edge="1">
          <mxGeometry width="50" height="50" relative="1" as="geometry">
            <mxPoint x="425" y="330.78999999999996" as="sourcePoint" />
            <mxPoint x="370" y="450" as="targetPoint" />
            <Array as="points">
              <mxPoint x="350" y="370" />
              <mxPoint x="350" y="450" />
            </Array>
          </mxGeometry>
        </mxCell>
        <mxCell id="2k0Metn1lGHTtt3fKhCi-3" value="" style="group" vertex="1" connectable="0" parent="1">
          <mxGeometry x="365.51" y="620" width="234.49" height="80" as="geometry" />
        </mxCell>
        <mxCell id="2k0Metn1lGHTtt3fKhCi-1" value="" style="shape=image;verticalLabelPosition=bottom;labelBackgroundColor=default;verticalAlign=top;aspect=fixed;imageAspect=0;image=data:image/png,iVBORw0KGgoAAAANSUhEUgAAAS8AAACmCAMAAAC8yPlOAAAAwFBMVEX////aTjHmUizlSh7mUCnZRiXZRCHYPhb44NzlRRTpnY/tr6bmTiXlSyDkQgraTC7xpJTmj4D+9/Xxq6D88O7lRxn53dnreF/vmIbpakv3zMXZRSP++fjkPwD7493ZSSrpb1XsgmvoYDz0v7b40srnlYfdYEn0uKzoZEbkh3f2xbvukn/pbFLYOw/ifGrvu7PnWTftinXgb1vdXEP66ebqpZrcVjvfaFLieWbrfWXWLADgcl/jMgDxqJnvlYPzsaM6CrLIAAARnUlEQVR4nO1da1ujPBNGoFAqB62AtgV7ENtat9oq6uO7q/3//+pNhlMCCZR6qKL3h726NITMnZnJzCRUQfjF94bXDdtu4LrntrfvoXxxhP2Hq7vHwVKNsFQe745P+uG+h/UlEd5eWaoyGFrWQQbLag0UVfl7+8sZBbczVZUhyRSFoaJOH9r7HuRXQfdwqra4XCWaNlhOb7v7HuoXQHipKFVkJVqmXP50u3RvlBaLG2XIpKyl3PxkxsKrJZMXS5n1mTQiJVte/VjGOmzdQqtiW7hiKxjWMfXhR8Zlwb3CYUQNBEHl0YWgPAb7Hvzn43LJ8/JKB329LOHrwFpe/jAVC6c85TqwDnDYUMoX4vT+R4Vjfc76hzF4wC0eK2IMS1nsW4jPw0OZ9ixt3OSYsz4S7Tr7FuOzcMW1Raw4T9CmX+bwI6hXe5bjc+DdldF10IrUpkvk3dZwymyq3OxZlM+A91Ruacpt1I4wyFbAYXhwt19ZPgMVdB0o/aidmxqkunB5xjn4b7/CfDxuBkzBrXS9TPgSnmKDHN4Ih1wLbrpJHrMlt55uki/UJHa/ja+ooXDJ10nleK/yfDAOOYZlHQi38VeqG7f1ogtDtAqW8HWgnuxVog9FwI27lmFidMp50jry+Ji/B7YRx7c2NnAN+RVnbIVT8GFDO2keYAWzpkJmmkxYSlMLPE/8JAjzBSEqsswU91YcjnHXR8DwaW8SfSgeSrQEvBbmZ/g3u6HTStxZefatPOxJog9Fu0xJlrgmgd3U4IG+YwCf7viambLdNJRY44H1iFtgs6PKDvfWMIqvZqUp1MFwug+BPha8UCISOIqikNkpNnHPcStWN7sqKTjcg0QfCm9QVtCKk8a7oUX57lsliV755XyA1Wra1mSZs0+1qtMaUK7bVZNYoV1Rbx00rBhml9I1jOsMt8qSiqVCZZh8rKofNiwIK8toshpOsKRDKU9JHbldUT9sXX6qPB+Mcn9tJTF9+399+r5BVn4oN2gUUzTJg5ULO0wKy2E+LnjM3Jl3UL4D0qglkp84gmokJZwwH3c+ESSclCuYdf9Zwnw8yjcvrCH3xisieu1WGWRzNr1vSqOnFj8W6JAclK8ZB8PGlFq7FTsc/OzvkNzFLq9SIDVtiscvLV/FuSMbCyqqui/3+GpTCocV5lgSOZ1TfHUqDLIh+7cVkYDaL7mVOoYTVMSs6kdL8jmo8DtURaIU5UlVY8pg5YFTjWqyV+HAGhKylruvOl6noszaEAdWEU3UUIqqKth9E04d2hWbFSXuPo+qoo66tSv8wqhY1eqkMRUBRTNSokX5qvaefCV1tG8N/uGa2nxVZJAHgyZsRFYIWcd/Vfj7ZiyQFULW0Ym/VXz9re7jy+O/9wuanqoOmTfhJMVduZA16qJhRT7UjBprlVKoW++EldeFDspLQ98G0wq+tg/wq9w9dRjq26KKr62NqFt2yjDmqwEJEdMeyWtlBTAS9KYcs9cm2CPT39+r2e8BbHkayUs35ayhojKTrEbwxYon1K4XHF7dqwr8LoA626YfrF4WUDW9OgxsgdFtI9ZHVvkrOdbV70yHiLThFnUFV20pqjW9ug2ibSBWWtqI+ItVhCEUwUaKNqzWC0+xrg5dgldWrN+ILUhmOTq399WtVLAwF6UxD4SV7Px+HzDrOdZbT5wyY7FG1HPY20Nv3FzldNqEeqHHrEe/MbRk73w0oh7NeXVdeYuvWXDCrwaE99y07w27qzb7PFkjlkfuywZv0Ib/2CXbRpSj0dLPe/t61+oxb8O8IecBBN55E3W3/fs+b0Nz+c7j3he4daud1n+eujbFfZUcX7WGnfrg/lJMI6JVjC7/eHSrPvi/CtmI6AujspD8HmiMOVYfDHwXbFum/Q6weEak1genq0bUVhPwzlAoYbsuQs4hw4YEqxFsjpfe5YQuZ79p2Rhvj9Fh74W9H1+tZv0uDOdo8/vxNWjW+6IcBXs3vgaNel0UocsuiO7QE4uv5r3vzl4i34uvhpy8p8CS85342mI/7vuBtUXxTnw1pfBFo1O0yNbssC5mxfrEm7YCvjAYkblSH4VOGmmNGNxK39vQsJ/qIHBb8mrMsLToVVIQWjalTMjAJV/Dro5Lwa0SKk2LVCn8xztTWRVw8ohuNeHIPR/elGNZavnv2YccS27qbxem8B7ZhFVsVnBe2hreNy4PysNmEzYs/+ls9ju6w8dGFb3YsKfsUkVZVBAyb2lNfwBdCDcs4yp9V4r5DpLytxHHcbbAJau4o/I9GPP40g/58wqAW9Yf0+GeDnBZR6GXDSzh8OE+Fo8kWZwzmn3G36NrHTTh6GUNdG8YG4kq488weR1Ww/9+hqcnsRgWVWzQyjuxW4tRBWrMyZJasI+Lf7XJUh4fgiQG7boPj0VbtNSrn6dcEdy7oq1ZA7V1d3zZuTy+G6rFHwW21KdGFlO3RP9JZb03hYs7rENQQ3XalB9F2xXBX6XyPdAYA+XvD1sVmQg7ilr+g6OgcorS+VF/k68M/Sur7E8kWy11ePXTDZFGN4hehcydFLOsFlK++07Q+LrNDrDd28sna7lUVVVRFPTvcjl8urx1f2r4sCXsdhD0F/0gaP8S9Ytf/OIXv/jFL37xi++Ll9VkslrvexTfB0eOLBvjz39ud7E5e55PREPzNXly2ll8kzTkSBJFfQ98Lf45hi7Lsoggy7qkSaffoiy3N740MQfdf/4G9ZO98iU7mun7vqlJoGeG/vV3FfbJlzyZBaFt2+eLo4mGGdON8+o7Pxu0Y90nX/qI+P/KwIRNPn8kpTh/ma+oC1+FL8E7xYRpW/2q4GfBNTTJ6FGXvgxfQldEJqn3OO33gsAsjGhffPULfEVLgP+V3gMItC/DV1G/hC6OxpyLzx8LF1+IL4Z+Cae6KEovnz8WLr44X2vk8Y1r+Bi6CPDp/OW0Rw3Z3ax7K3E+fskHaza+B0Jeb3HWE1enm8y2uxfjlS73jtjxSnvz+twbjY/6RMDcdt32zEFBz7ztAqK4guArOBut9PkZOy1BQzidiJPRZZ86XeZBV/SBM+ifdkPB0Wgli6OzRdqSxddZxtfaN00NNe6ONUfXtazNbKJFiRRKoSYz6sGLf6b5D49+Jmq4ie5or3GDF12L7jEZOUQwwl0iSJqeabeIRuBAtmYC/s1ovoK5JuE+DXNeZMxDD0xGKZNLvu3jruhZG6Fr/46IC7NV1LVuaPKRx+drje0xuvEaU+cJ4UrCQ3aSFu4c4toYsrYih4qtRwtQYGKmbZwePO45u8sQcwuKNzZ1yGGhR2eSyDIhHgRdXVB8nfl6lsjlfUiwcmTcJXQqa3+yObKxPCbNV84NeaNs/KL8L+Tz1UM3OtFsYFVD+rXSIyniBhsYJNIbpHwOjMXf5PjqC3MskYQmCN8qoUd4PUmU0yu6SGnYuWzgB5jySjJxVqZrsTArpHLRuHWASfE10nCXjhSRliNs4+OOTHHeW5kSzFH6yGq+vAkekGQaOk4T9VOBy1eI4wnTTYflC2foX0PTHD9qcGICeb1ZYIfBZgLWYmba7qKvncWrIxrGevMyFkE1kZhjCWWmzycv6xXcIZHVvlDGg11tbM/zwiMD/UeOhXsejUY9IOx0hNHrZ3ytXzTREcdHs6MeTFsy6ggzPExtjL2UF57hSTASqbfga41ayPpR6Hl2cLTyE/EYfGEblOPsAw9LQwoj++v+eRgdKer7oN3pkZkXH+Y2HWobjVMe6aI5BtfsrSGl76Hhm2s7I1z0ieHO0Vi161SaiU7xyVkf5Yks+y+RY3HBBEhJzvEwzNRRuJgwLTGDSr7O8aCdtMEs8R5FviBcjd2X8CKB7Poq67qLHywbhPu5AELSlDME9RPN1ERf8eBkSdTSycMLnmicZdKjHqSULiQOzjEyZemz+UKeyUjbePgWYtaiKSD8Kk4SZDl225V8YcGlE6GAAl990Gw/tvSNE/lgojiAjRP7J3LwDplyAl+k+N4qKhMRhPzRSYZtHC9MyEX2Al0xUgXj8SWaJB/kPKMe0CikM/IWHCZpcRheyRf+j8Yoa+X4sl9hUfCT6B4UQfSJYdmGTIoSAS9iqfg22KtMiA+siw7h4PuQcyWz8OLkZ0BASiwbHtGaxRc9DOQCCFHQoiXrVJzj4l5iD1bJ11zm8yWvTi4CN0S+e6QZMG2pIuJ5Th8CAAbz2SVcTLoHviQykAFnQAkHOVdKEdI/WaZ7xE40tSYeXxI1DDwrySohtLXcGKLHiPGSVcnXiJPjwETLEg4NUGwAy7JOrHXAl0aehoRZPM314mETTLq3zfxKJYDzpEpEoyxmgYnPy4ZnwEk8IIcveU5dAoN0YgpPnKJ+POvpuCr5gv4ZZdN+rn4vG/6IaAV8UdOIlcfZ5Ls5JVgE/XKo6EqX8wYHMXGsxlgxtFxwjoVPHR6HL/2ZugR+04zHiufDyA0Sgslo7qvXR1i0tIKgEV86hMG67pjimho45kteEW4A+ikaNkyHHn0G/dIpvrB/oxl5NTKdgiSic0IBy5bm09vx5fmEXsM6dUh1ucH6FU91dfz1CsQ4KCQs8rUa4bB71Ruf5I/WAl+k2oPSG4VNStDDxDf4W/CF5U0CCqwLoiFRMMhoaju+gKOYry5IS3cJSUA8R1y+MrdwqkU5jfRKNoOh/MmLT/FA8QXrg1xIloHGOAjZSr9IvvIpYoJ0XFvqF8FXWNgmjLE9X8KRGWVZhj/OHBJjKCTYfOkFvnAOlMQHtfULwjPNLMCnkrZafMGKLBe7NP9V2CO57Lgj04gYk9IVbxe+RL1gj5F+RX5uJ/2SgrCA8+QxPL7oZTqvX/Kq2GV4HtvANnwhsda+FNUTkoC0Ll8BnVclgADMjD7X1i8c7Gtl+wX19cvGfIn8HiO+6FdsGHyhhi9RKStJduvyFWIy8ot/tFQnAX5t/cKxhVb2g8b1+YKIT+Kfa+gaRTGYfCFcQ8w+5g6FRIEvwRRZvWIXZLxGn2vzhT+X7hfswFePk//FgE1DjX4r6Q+HL6gXyLEPqs3XWM+qPSmiqCx+fG2+Ao3RJQlYZOrxBXPAEj4Gzg/pOQIK2bfIWbWkNl9QvDFzBolT/3TVrM1XF6fw+S5JAKH0EYUqvqjqDQOnVHKO0deYloMxzhxGbb48ubj97cKjkuylNl8Q4Ot0MkgB+NKpS1V8RYsuVc8p3C9K5DoPUSCbL0j+d+RLOIEVkuy3GwVQyQpXe32MokuJfxoVoimNWpQr+boAF8Hddcb6R5VMXqHmZDAZxsYbJ6b1+RJwsZiongo29q2iltaA6vMVFRydMb2eZcbkAZ+UKJV8CblR5QFxlZnw6a0dEbKyxEhCwpQXhDvYga+2D4+6jvXpQoe8LIsdd+ArmgPDSHd2u+7JitANQvYwu7+cr3OofGrzRTISOzjzMwMEMxFNSA7D2QpXyyVC49b6SzKWC4g94rVhB74Q33gkhjM6mZ28ivAfZ5R9vQtfNhw7kx1nMr6+vn6eGJpE2udFlD4bE1GPiyXVfCHR4OyfJvXW19frU1HSDCKC8GCKkBT6BD1WFrUzXKpKSyKSLDm9o9lssxYh/JqnndbnS+hD+UDEG38GpAsm6Xt24Uuw/0QZsqwbhgEbjuRjY+Hw1uv2fAmBIUV5e9onuYXgammfWH/GEOMmXUZpn+Q4DghopBsYfVOWy/jS0NfFlct+9o2kqCDr5oQKzm0f77/TfOmyTAcM+Pw87ZE2jpNuVeO6pUmuXqEsxc8zuvH9ui7l8kdT13WfjFG7cfqXDNTxyXk9Fx05fRh2x3rW5cbPBiMb/nM6lECcTCb58nKGxQp9PWJ84a5XpoNhis+5l/dt3OWE4quHLohUtA3vZ9CLd3fT000t6tSZX9MJkr02NEeSHDOeiE3vz58/9IrqzdGlOZ0ThmcTB8apmdpkPKOTVG8zMSMRIl98SnQZbnrJjeL6XY4/e+7FZrO5cN/z8LntLma404CRfduLzdHJDo8Lg4vZ5mLhhqzg1Z1tZrw+wwCPZdH+Bqfrf/GLn4j/A5I2oZZ7nv0yAAAAAElFTkSuQmCC;" vertex="1" parent="2k0Metn1lGHTtt3fKhCi-3">
          <mxGeometry y="3.5699999999999363" width="133" height="72.86" as="geometry" />
        </mxCell>
        <mxCell id="2k0Metn1lGHTtt3fKhCi-2" value="" style="shape=image;verticalLabelPosition=bottom;labelBackgroundColor=default;verticalAlign=top;aspect=fixed;imageAspect=0;image=https://www.influxdata.com/wp-content/uploads/Grafana-logo-2.png;" vertex="1" parent="2k0Metn1lGHTtt3fKhCi-3">
          <mxGeometry x="154.49" width="80" height="80" as="geometry" />
        </mxCell>
      </root>
    </mxGraphModel>
  </diagram>
  <diagram id="Zgmx_JIv0A5Lvel_0JMu" name="Application Overview">
    <mxGraphModel dx="795" dy="521" grid="1" gridSize="10" guides="1" tooltips="1" connect="1" arrows="1" fold="1" page="1" pageScale="1" pageWidth="850" pageHeight="1100" math="0" shadow="0">
      <root>
        <mxCell id="0" />
        <mxCell id="1" parent="0" />
        <mxCell id="BoOcz5o_qorlOq226itc-2" value="" style="shape=image;verticalLabelPosition=bottom;labelBackgroundColor=default;verticalAlign=top;aspect=fixed;imageAspect=0;image=data:image/png,iVBORw0KGgoAAAANSUhEUgAAAYYAAACBCAMAAADzLO3bAAAAZlBMVEX///8A2P8A1/8A1v/K9f+n7v945v/Z+f/d+f+z8f/8//9u5P+h7v/q/P/3/v/w/f8y3P/l+/+T6/+98/9b4v/Q9/+J6f9M4P+Z7P/S9//C8v9/6P9A3/9m4/9T4v+t7//H9//L8/8zWH65AAAUVklEQVR4nO1diZaquhKVREAUJYqKCmr3///kA1IVMif0GW6/Pux171qnlcnspKpSE6tVLOrbq+u68604Rp/Csa1PZ5YkSZe9DzNPXaDiuKOUEJL0/1OaZOvoE7fv13BmMqA/9TmXwwUSSsoHEkAoS7cx5+2viXYmSf/0s/5c7GiigybXfei0zVPlgJ94/RtP/BNhYWFcElevqN+3xCRh4OH2t577Z6GkKFCoEPOwIt7Okw63ZDpyOHP4D067/8WH/zE44liy9v35bl+JRAXtcvtJ906sIEITlpWf98etAU3N/u4P+BnYwaDX8Pd+3TIh80liEzHbk2CKkKbY4OcFkLeo6dmAxUDkaX8oGjHO9GzYoLlYCiTZKRLoAWf98af+cThR6wReN9NQaxqiRK1ASKZT1I5f0fh9xwIORhzivGBIBG2lTcQ2Ex83pi6uOD/nP/jAPxIbPqI2k+ggNAA9V/jhHlcJSawagC8H8see94eCW6uOYctxQRAGE/+OAok2G+spl0UqfQXPUSa9HN9ur2LuF8PfNa4P4tqjbdliK30Bo2rwbHzXYvqXq1UqSHHv0F4jr88/8aw/F3s+eT98R8DY09tNiCiPH5VLuWUHNwugoSvPIduncHagwvb5mtaLjp6PO43Ybl0V1x/NvAfnnDIfsQt0FNSxa1DwlngIObL3nIbFvTcHo9IlTeiwWrBAytCx/LCP3/J4/wpGheq0Vye0aKiGTaBR6ZM6eNyCCaNHKTy2xeT6Dq4GbnstNMxBHA0fciwoNMB8J1L8rif8JzBuBUKeuLtsKCXk4j96WQ3zEaMbjomafJHYvUmIhYb5GE1R0vkOOXQEtMIHBjm9m4JFRc/HOux6gLyNYb8A+wevENtGSa4FCu4+P/cI2ELzvfNposQF2L75BdcCFeBTcjuJChh4MKYg9EbchtDizPgCeEKAO7NoA2q5Q6IgCSZxJM4srr0v4cDtGtfkPjA+qInwbB+42USYawEVi6P7C2i8YR9Qz0SKaeZgN+0cp1y94bwFdux8wTKItqkODNQWjsRKHn1b8onnIfXIkI1sJE3A8INdPTAfRwsc4BYrtVYzgGIwNncvx+cDQOcvmRnzAMP2oX++zy+Yb8+GGiAJCUtglVw2hqKGBJml+momuEN0kv55kWYNo5RaSkg0DIn4CTuf3vVUkfKOiaouMLATls3ho3zy8Q8SIHPByyK6Nh0F0XnJj/kSwPB571jMAvCw0Z/etcUva+jUgaLOo8rx/k/BnQ/JLzCgcMEv9gsepYFOF1hW/Eylcyh23oGlXEipCCoOcl1/eeb6eabJ9cd5q6r0bFsFozXE/8XKtHg81ioej8e7PDGiH60OV1Z/jQkvDcPEsGeS/7/i8HgSnYOxNj1hrxYKsYgnSRKdfu312bHEXB6Esuv9C0yEaOiJeH3nBbHd9v/F/u7NlekD1//dZOVnPvxGPtXpyXcJntE6pppV+WPo12CwSrt09oiFaQiGYf9LHJsRURkR+dMUJCy9C+v/Oo2wG1seHBVuwe1mfWLGkkjame0bnGMvkUySb7se8lGTxhQWrM8yCWjdSGMO8oY6YwocF5Bc0pDwaITCca8lZhEBT3XbaMjTnVSg6o2e/5fgDugwDfeXPK1o0pxSfuYUPT7zD4Je0isf9CkyzY1femoZVebuHCKAPNuqruqpHO+7tiKIo6GSOiz0y/xcHrcYxBejjil6wVtCUGjy450wsn3IFd1Dklu0svbQ0F9X1D9+1yhrFA0Fk0hgV5ik3C5CqYSD+wjfs1Z1CNcWhAeEtpcsmRLBKYtN1fDSgCvw+0Y0Img47CbhSp8fYkNac+ECAwX6OSp+dla0NDyCSFGqSkmaO6vlNARoEE0Nvqn3MExDziYSdrLJd+Af8ugOdg2IEucbuCKXEDBT5SLquhNE0GeUIyJEQ4W/4XuGNII0vEVxP9VVJsyww/RvY8twrG9Zdqt1cmDpjAzy9AKiBakntUpYjLkfokHkSnk3Nf8ZQjSIih1LVxieuzcmPN45I0xVqe9xnzzssTttfGCEhwF+8EDeh371AnUESSIURJAGXK7B2pj/BAEa3mIobE7oRKiDRpPvA9aS1dNrdiWpifvJR6P1SSwEDpDsm7AkCdKwYiFL7pjfjzM8sdUxv1zm7G32m3vuuoGfhgKrajvr6Sf+y45o+ygzzWjEp9yD76X78YWsSausWAtnYWBLGEMDKmnbL9m/d4y7ypPu9BG616oqrh33IlPCsiLY1m51KNoOXPHJ+S0L2e1+BE+3JreK/7lXJiWqUtrar36kIG7BWJUn/G0yO1GsyQkzOSeuw1Y09mlVQe+fsBsiTAPMmcS8U28QSOu23xftvJO86ORI4yBzO/9qXb+UEyhlk2jZQExEfMehMAvr2B0V43OaQQcNWcvWlkZ8RN5TcFlEUq6gncnemHkWai4TpgHlq67wc8NbOVgjzn1jYXHyE/pyr4hNY7l+gsRt7A0L5cu1wQTgGierPs8O1ovLqZOV0Dr+4YOHCO3zwzTg8tRmemsNRVFHX4ljYx22fk24tq1Xe6gLfT5hGvY0+NNWlguPOFmvrogluXrdmdoqHecXS2EarLqhmjqekdGmE9rIWjRZJ5IwUiNX9gqZfScPhNIYkuc/hGkAqe3d/svDLZ1qXQzDcEtjeZieyW/Mw57bX0sapgG86YobvkLziSbNtX48Hmmve/Ejc/+OzTZ7ucS6XXs67djkebHVZhylrW9/665jU/iengfBt6EynyJeLI0ll9qd17tWiadQ6LJphvEgWZdJStxra0Drscb7IEEaIIdB8bYgCyS5TU+wuQIRxsWABULYSYisTSnCuuaOZC++S5r3fZyC1T1lREqrPu6yAU+4RMaxm6Yrl0mhEtmnmNOy0MgcoX8im1xiyeg7aB3Al9d8CdIAlfKKjnkBC60qE/dne7otV/K9naNMiC2aYEbq5xarOuhLuRJ4SuViQG6T2mwhPqP9dYOr1QV3Fopc6Vw0KAaPaKgb2BVUEb7bEA05PoEkOkDrEPPHg7NFlwTDnNM5W6GP08x2E9pPf6rDwDNppAu5t29lTO2zqONR6NrqUU1BgyJZ4LBgsh73hPuVQ4AGrEuVJQeGAW26lY+gfssK26VpQPGqsrbGuWjxxZwpVUbWTcMpLp+xJOZQbh0s6NU+GewdQ/cYlbQ/cuanYXtG8SAtqUYNiltuaciC2u7ewvi6+iV2W7au9U4tOwithqAnDOXP3vahuRrko8D5HLAC4hrxeWnIUUjL9y9wH2/F3m6eOfTTzdKVtvbW1WiSzU1DHaEY0cuq27UvFw3KosH+MiEzgNvW1Otn9Vwpz4S1L9vjsBhcXnTeFsTuSzNvwZe1oh/5eoqsI3PTUEVsG6YST3U52Hdv2uzai8EJLDnYeHmtWrjSLi1VDKa9eETZA3zXExM08KXq5376Kfzush0I/rjIvFyPh7VB/6kHR/u+IXfQoDh0JqvW/2P5YghoKWTUyCOWdq7KJAj2o+alAw6npobKDF2dJld+BDw0FBbvtY5Wkj4yX8wqlZRrTQz6Nw6Ya+Bvp+GgXb654hvbwhO6r8gb2fk3jQgLDU3IWabAQwPYk95ehbJTRZ449m20Er55yud6lhyWzPnHI0gC7ZR7bIL8g4PAIgr3j3T33LVlLRaxScMe7huZ4eML+6Cud/MgNzVUnSqNZTkocgXkFlDt1kCNWWNtQ4gEphkstXVjIINv8s0cxKIbvYCjHzB58jVq0nCfkaiyCkTfoJWqs6Yc3GWsMKV3lRg8qJsGDL89pbwCEwcMeYTyizwcUMpag0TwW/oknXXTqIUbCB1fGGLSwCdodFqUlwYUoLSxjxKU5d5QEMqaNtd5IIryEGHTtc91hRcJb1/EkEvKGT4rbP6YHRhKmRvMHMjKEm6gbGPJLrnGuIWlH+qNRW9wGOy7xxYtybVlKyTaQ8PTdspoADU55uxZLYqprXQw5xFuIs9udBlZjR1YhHpFklJBPB4gS+T9tAGRqCb0vTVoaGPsigmBzIyL8L7bQgL8iab0Cu2uN7GA+7WrzovbFDa9uYLRmy6eBev2DYfsw3L806K7bJCHVghaQp51vt/nH0U2eq3prfuzNEg8MMPDCYJl+ByS6jXDoEo7HnJqtNd+Yg7dYIY4UjMOInoYw4KVBvD+WtvWRNMgKbyziE5ID7Qeij6IQdlvpmF6A4b51qSXZHq3jj13la/XuTEMkOPHj4ZEJeWAw02EtRzJORpsNGA3LVtiSYRQ4nGwSVpi4J1pxtMdPWgW3RDb0DScw1q9pnCtksPKwwAgemF+OxJdNGCQgo8vKGnJmDmkk15R3hDkhpUGDCxZrF107l7WAUxjjsEacyexM1fDCa2XOMQk1kuva6PPixgVkEnwnOUMQ7lTbsqN0kmTHk8TCXb/vgVWGqYJbCwoGKYZBfE4d2wbGLC7JBqK32iwItbSuNCuhOnAGyyoVQpR0rDU7KpWEm5jpel0s3M4I47DTgPKHlNYwhyakVh8M4Z6grlvyCM8QRLiqn220qs8+1HarQ8ir178EAw2BW8J+/wpx487O+nH6nBv5dwtyuLbsjpoQJ+CIZY2RJ0KYUCBnnU3b+4bfqMzQ8bxqdS+sWz95mdOspOLW1ei5QRYwZNBzneJ5Kxw0Kvo24zEXgcNogesLpYq8KLE34LfwaIZVrbVAOkAvvfuyIilYbV6KEmAKDkkA8eY5Y7rwFWkAeC5DVol6GlWmZqLBjTnDLEEO5145ZB4lo/Fw9p6ZJiJeBqGklwzG/O1maZHqda02YF+a3HH473U/YD9aptHgocG3NHoMY065mGNO8TTgJuWOOU2h4Zeiu/0RNqha9iz/MzHuzXydsCBdtLP+3x9e7KE6Bn45Dy/44uTBvSIEK2ConKf4buDPc3TQgM2QfW/0ggxj4ahPtBIUMaWGVl6gw88eUeYlZJlryGR0OiFNSyEmQ0CRrgHddvZxdJV2byE0XmCkRYaMAsrrn/gXBqGU4biZdMXQMjkfciut7fUQubRo36XpyskCY5H2wISX+xbsvKmBNzRHaMqLVBl7p2ONuCZxyC31e9VmKxl5blVfWz5PIcsxzY/deYgqpQo/ZQwLOzvA9dv0n+xn5JdxKCrVdMDN7erY8CaqHPTFxO2xvJSj0urpOoGO5c9EjOAwiXSQxYiDVwLc59igo8GV+wIpZVVfA81Y4pwhQx0m20FKcm6WYT5YqaRO+zhlac5zt7G4FOOt2jZ3F6HBgND38Oap0H8QmcRHw3CRtayVY74cWdksdwHJ7s1xzAxC1A2mBiu0XAUP1LdrFc8VZnuprUPHIvNYaxU4J6M4b6XtOX1eHPYAEGVNNf3OOWgKjfy5hZ4aRC+N00sPUTJ2U6Z+Fgdr0Z/91japKkH4XIzNgkiMaLfigpNU6FHQmEZFcm4cA5trHTS8hm39yJttT6sumUrRa6S7nxNC0kbQxOZr7/MxE8Dxjd0sYSVrqNxUAytuY71W7RPI1qWMSZA0N20II5lP8YuGqbrDwHxLE3TcujUicNjK0Wgr9u16Q+Js9/gPRrG+uy3AlCslnQdYywB9dH/swNRSVvbzsz/JoIw/DRMlcWaLb2WfWVaDJsa7QkysXrYqajromzHQSUst3Y6WA3vXJNcQEQpCFU1xlpMiHG+Ro7ExSNEGoe6gYQj+771pTq7ZyNAg4ic6XevlOI0CYRYqkHbabAmxmhzsDecGHBk9usb7wtWs68js/14urdjZw830h4KzUb73u76izo6RAN6PM0tfmpto0k7q4AsjLyfMcpu274BtldiEmHpg7lXrky8L4EWyIjrtiuxwFTLGHPPHDsU+Drm3laASHF76kqUOcbwHlKm+FOG/nWNy8W+zxLF1cwbvFajVqT2NNvj1chtssnlo9S+iLK4Rjf+wg+c+FISATb+dCUE830I+XL34AeH2w+yhSMeNgfw5dpAjlP/GOxZ+NKwjyVLoLUve0EO1HbtvPT4df1kmEKVsLOju8Ph3XCLM+nSuHHYBjQqFteIn3Mwq+60H+eTWH8DVf75+ZmmlzxCGmwun+/3Y1bfkm3+WZblu/70OgqOn0X6GX/d0JuuqkQbddSQ7rXGv1/egjgH4IlyE4u+jjM/5ORXDAN+1WL9F3EPKtS3nA2OkUhfKIon7i4v95mDT14z7TsE30Z5FT4D4khI5uDeke/Zgu27ovZsGxCYlV+ikeQv38p+cf/2LyKNKNattMKrQKHIGEKPDBku4Ih6e7r63u6Q9r36NoQLrIgbs1xmIST1l9UwH7x2Ozh1RdeIiGPn1L8u4IgSSqupfXqEz+65WEqzEaOiV0PdlVgNwTDz6OmelSGygJduhzLeNpKODqa2Lrvo+bjEuKXXqqXk1w7bGKN2gQoIHXudkSlGDDHK2vgOh0yfryTs/bvgsSxvXiDGC+lZ6GnHq6JH8BwW8tuf9GdDf0GuDhHiHSJSaLcSS1c7RPuriUr/JLiV7zSVRNtY7mEVHQOo2S8QwCtNvukrX74tIKHTHnCodiKBAdbLcaqutqcigbJZoj7zAHlKVjNfZC+QRASjRbMJQq62BQFlxD/zRbZ/ENCr3vziIrp7KKmhW/FODMrMzQGUM0a24logUNr7EW2mt2LRTJ3b5fSSION9BzNbGyxAYJGGnBVwqM9TixWzrjyf3ppEGuV9xNFv7lugA5tLlrApq9ZyPa3RX2PAoZXSidkNU0UON0huXTwZ8yGSpFlWPtL2zOQWj9YXMq2UdgP9QWx3en+WGVYHxBdlLpjwECJGq20gNHO6LQ4nydGkvtfe9v6DBWGU08xOZBLO3tS7fWsvR1n081dh6T3ckxBoEjC8OcLMcSZLhtLX8VAn9pDfHFUUvz9pyeyuNxotiELVjmW2vJQtyWbIlfeZQMPAIY/9tGyffxHF9dx13flUzA4V3N9Zx1h/asQrpv9R/A+aDtHeSucP2AAAAABJRU5ErkJggg==;" vertex="1" parent="1">
          <mxGeometry x="300" y="60.000000000000014" width="180" height="59.54" as="geometry" />
        </mxCell>
        <mxCell id="BoOcz5o_qorlOq226itc-4" value="" style="endArrow=classic;html=1;rounded=0;exitX=0.5;exitY=1;exitDx=0;exitDy=0;" edge="1" parent="1" source="BoOcz5o_qorlOq226itc-2">
          <mxGeometry width="50" height="50" relative="1" as="geometry">
            <mxPoint x="420" y="230" as="sourcePoint" />
            <mxPoint x="260" y="160" as="targetPoint" />
          </mxGeometry>
        </mxCell>
        <mxCell id="BoOcz5o_qorlOq226itc-5" value="" style="group" vertex="1" connectable="0" parent="1">
          <mxGeometry x="200" y="170" width="100" height="90" as="geometry" />
        </mxCell>
        <mxCell id="BoOcz5o_qorlOq226itc-1" value="" style="shape=image;verticalLabelPosition=bottom;labelBackgroundColor=default;verticalAlign=top;aspect=fixed;imageAspect=0;image=https://www.docker.com/wp-content/uploads/2020/09/node-docker-logo.png;" vertex="1" parent="BoOcz5o_qorlOq226itc-5">
          <mxGeometry x="10" width="90" height="43.38" as="geometry" />
        </mxCell>
        <mxCell id="BoOcz5o_qorlOq226itc-3" value="MicroService 1" style="text;html=1;align=center;verticalAlign=middle;resizable=0;points=[];autosize=1;strokeColor=none;fillColor=none;" vertex="1" parent="BoOcz5o_qorlOq226itc-5">
          <mxGeometry y="70" width="100" height="20" as="geometry" />
        </mxCell>
        <mxCell id="BoOcz5o_qorlOq226itc-6" value="" style="group" vertex="1" connectable="0" parent="1">
          <mxGeometry x="460" y="170" width="100" height="90" as="geometry" />
        </mxCell>
        <mxCell id="BoOcz5o_qorlOq226itc-7" value="" style="shape=image;verticalLabelPosition=bottom;labelBackgroundColor=default;verticalAlign=top;aspect=fixed;imageAspect=0;image=https://www.docker.com/wp-content/uploads/2020/09/node-docker-logo.png;" vertex="1" parent="BoOcz5o_qorlOq226itc-6">
          <mxGeometry x="10" width="90" height="43.38" as="geometry" />
        </mxCell>
        <mxCell id="BoOcz5o_qorlOq226itc-8" value="MicroService 2" style="text;html=1;align=center;verticalAlign=middle;resizable=0;points=[];autosize=1;strokeColor=none;fillColor=none;" vertex="1" parent="BoOcz5o_qorlOq226itc-6">
          <mxGeometry y="70" width="100" height="20" as="geometry" />
        </mxCell>
        <mxCell id="BoOcz5o_qorlOq226itc-9" value="" style="endArrow=classic;html=1;rounded=0;exitX=0.5;exitY=1;exitDx=0;exitDy=0;entryX=0.5;entryY=0;entryDx=0;entryDy=0;" edge="1" parent="1" source="BoOcz5o_qorlOq226itc-2" target="BoOcz5o_qorlOq226itc-7">
          <mxGeometry width="50" height="50" relative="1" as="geometry">
            <mxPoint x="400" y="129.53999999999996" as="sourcePoint" />
            <mxPoint x="270" y="170" as="targetPoint" />
          </mxGeometry>
        </mxCell>
        <mxCell id="jkhA9yasebKbBRG_ayPd-1" value="" style="group" vertex="1" connectable="0" parent="1">
          <mxGeometry x="460" y="289.99999999999994" width="120" height="104.99999999999997" as="geometry" />
        </mxCell>
        <mxCell id="jkhA9yasebKbBRG_ayPd-2" value="" style="shape=image;verticalLabelPosition=bottom;labelBackgroundColor=default;verticalAlign=top;aspect=fixed;imageAspect=0;image=data:image/png,iVBORw0KGgoAAAANSUhEUgAAAOEAAADhCAMAAAAJbSJIAAAAgVBMVEX///8zZ5EwZZAqYo4tZI8fXYskX4wdXIr09/kXWokrYo7r8fU3bJVEdZv4+vxHdJrL1+Hm7PGMpr3c5Ourvc5egqLT3ea5yNaetMeyw9JsjqzE0d16mLOTq8Fxka5UfaBZgaOGobqasMUAT4JukK5liKiRp71PeJ15lrIAT4MAVYYe0UyyAAAeJ0lEQVR4nO09h3arurIBFWooxgb3tjdxbv7/A59GI9EMWA4kOXlrz113newEY400venl5R/8g3/wD/7BP/gV4ObF+swZb0L4tgt+el1PQuQGaRoIcKOo/q2bL4+x53FO7Q4Q5r3ul5n7Q8tN82S5PiwEHNbLTZJno/st0NiXt9DmnBA7DOPTuTwuxKcEdqEncLMGwCbcid+Lbz/LfF2GlqQpAiD+yzixwtvxukt7Hs/WZ0s8CnjYlg3Y2DallIhPMU6b+MBvJfh+jbXtM1oW34edWxyZx/27XYflU848+r5JGzT4Eqxjr4VG71GJT4otik/lcX8RZHHZl6dY7CHRH/QZO3zPQeYXyho0Jc+C2i10fe7F+0KdZbZnXP8VTk0BaewQJYzF4vSzIGp/V5AVhzLU2yMI/NJHIDPjV4qdRswIczyPvp5O5/Pp9Bp6ngN0WHEPo6dDkuZ7Tmz1C4+c3hdXwbLFZnm4lK/MY4ISiOOd3oo0GvxKN1+fPNwkm5PD10qdtGRUcT+JL5ukRTVpUqz3J1qhKekO8RPohZd7wZ/uBDdfkmHk6ieXMced5XQzHz53sPYockS8H9ZT2W6xshzSIFvK4rds8pfne8rl65zzV5FqumJyvc5292jXg+RwqrjHOxUGp6Q/mWb5riiKXZ6l3U1MF4QgNy+fXrwJ7KgPb/dKw+NIl+cPwWY83hk+v7m+n2OhLx2hgxhzOA3j1aVofVtwQSpi+2dXbwBLT3L6Le/8PoqEkRL1H5K7Ka116zeCVzdLAZsiv5MtG8sTMrohpQUnC23Pt8sGVWYnSUj8NLvAWTsSwcZ6o7Q47FexJQSq55HwVO4PyyQd/mJ3tzgTIW/R8hRymN/e1y1ZFa0t3qsovdWyfm4tBRmJZ2bGJRN769v1ASaXG1gxWjGK/faFZeOwcHXZ9JHx7hg6pK31hSbljrW6Nh4XVNhrvQkZc6key2LgRt+aLrwakMAXk1hvpLuOORkwJAVhkfB905YSm5j5/Y+LxfN4XT+dx7z/xYTv9VNRCUdtky7DTIAU3kg06UdrZ2AVFfj847U+myR0Rp+3ufe3Xu2B9T9sk4+rZt0Lkx9LZsNwJciLxgrBZGiXO2fjKRnqDlBe5+myWm4SkoGnajmHco/OdYpL2DGuOPvqPLKhERyls7K4R3r04ci3WnYE56GP0ErUbWDbbDKPKS5p1FEncmRG67W40lg5M9sQC0j7qr/y4gw8Y7NSkdIGiJnG5rbECGwF0fCF+tnsQCz/hs/vhpbav/yKCq8DzCjEgaWeWcKr+RyqPxMkb6u92hsiaFGkuGSIo4Y+xrQ9thxE0WbKFT4AimwGv7ik1XvWnuFK1fPpkEoZBJsdNYrDp8+UdwHEZYeTEczFsVGkucxIiAoguMzIMubBGniopMfwdtoebqAbivWwyVb4hVRi5mS6YI6LPD5JowiVsbIYFmoMeXHDZzjEAIQyHuHGUIxaSqQXpkzbAaqNw+PgC2yKexiL1TkTlSKgxZEQQlOmCqVYco2fv1s/x0VHtyFTz6Jn+cRa7AFZTMOwFF9iyw3bmAp+tSGXTx4hoOggoQbDbOFIaZM6FYV9FlzB7hTlRmx8hFInp6ZytxdFC7XNbvAldCUfgC0IJxk2OyBSuV2Z8REe5Cc/J2YqBG5ouhyGeN9GaQYkxie5UUKS2qi9D4ZEZxP5eGYqlgaA4BlJFHrBk5b6gkwVNYI0FZ2bqgq/1FszDRgKkHSIN5CyQNTwKWZNJIwSIk2/1FQXojkTTMRPgPK+hmwblGegEfl6cP2PAdwKfNXOlOo8XNfnBakG20IJcu6nU3RECqZ/+iRkYqFMEvybIdXhiZubP2Ov2uIu99vg5A3+mDgTFWIutsiTomo7qHzbwCRtZVNURQXK/HzrpQdykQt09E+fhES8/AN+iAy1oU2klL9OJ1J4maWMoxEMvYlnCKYlld9i6AcpSfr6WYOtDUq19jL1TBgKYUxP8IOphYJcH3zMgqBW61Hf3xBDyYeHCRgKYey/6zeZALo1n/Uq7oC/6Y2+x1DiJW2uKdpCvKB+kwmgjbifqu5rwEPsEaeIV8P1+TSG6k2GIUFJ0uZG+kNQh9hjIaElM9mmAQzlDhlqcGSO1J4NQ4tK2dxj9nu5Rp0Zpu8GMdw8gSE+nM/FhlbFZKs7C4KhbwFhsim+BWBYUYPJepIntuMRYJUHe+l/JXqhofAMyLdiKD2nBtdg+c/TJpxNGIeqqVVZniQN3sUllQcMSmySB/wkhjaRn1IkRbgXno+Xy2Vfht4zkVPqxItdp5bt1vk82r8BRDHiCQgChuwZPpSRPRecSuqQ/abKCLv5hRtrEOfUU39y7NAB8ieYpbSciGHthz0GZf8Qm5NjN7fn7s1UKuW99TKLzgY58v2gDqfF2p7U+Bizyv6E1z7WMLJ0aNwvNw5tDFVoBTh+kjqEPcJVm9mluJ35eqBcYWeSFagLEKIgcKsy1I6ZpJjvLGiXTwrTCAGDYRoz36LHQgzyJK8WvX5ICTpx/JIsTsJpCgVg0cXfNh9S6R1Lv4pNqjsBwpIKKerKsn4M2yyUrUvuOY7jEV1SeH6gN5Tz9bKzPzyBHpR52Rgs7Kh83EsIQdivUxCU7OfJPTLy8Zv2U3qAolIhUz3PY56DzJI8OEQVGFx8hGvQFqn0pCVPn9o7jD4MSPhJHj6uCKMYXVnWv8BKgOZHLpmOH5M0zYoLw/DmS6+7XoE6j40XaspjmuM6NISWzn6yoMFIlDwYI4WoMUxLVUFc6aogxizyYXSj1HnQ6lyEvkMN1IlkYGJGhla8abVRIGDQbc9NXGCF4dXTTEPf9ZvSP3KjxvP6qHuFt22rM7xRLcvb7opiQ2+G9GGolVw6XExfAx73ptYsNq8qSD6kJglGtQ7uEIROYuCz/Ey0L99JEng1G04tVSh9pS6Mgm3szoZVBjJkOw2cY2R5UOOU3FaxLFBF+Vy0McSDA0uu3wJ6AmphVho4CGo1TZYlZ1h1uuWWIxnxfYwRMW2IJqitiAbPtR2eVHwKsoxNLVGUClGSxLiMUBhqPmoAdcJzCIyJmmDUSUHia5sv9bnWgLQC32OfJiIomRmrHXYGwrQWAE1Qp4FOyqiBi3zczuN58ujbFIRZfFBgU1PcL5ISkCYyEwxRKvTLS1xMOiZMcRPaFREy09OWAsrykSbb9PJEYWepqgADKkUkBpIW+Jr+EL3+vNyhvPV5dDlbR6iiQXIjphdDS1vGVNSoUNvAMdnyhWNZKVRMURNDlORB85UqywzCx5/k/SKA6+s9lhEKw/0IhjaX+9111luPxHebgOqmpUYVTYEdN1lXvCDJoQAxCOz7EsOhmgb+2MD1JLU0VQOeUss9VZUTQKQfM1TsA9+g7RU9xhDPcCh5aBBqRDXQ3CJ0BFtniNIVJK46zYkg2E/Zfo/zuohhPoAh6oJRdXGfQVYYNj5E0Na9zVK1BwBU5VX65wGGVV62D/rsgbs3yO9snLOSwI3NRT9MnjObpQha5q8K/dMDDA9jOJiwM9pojUoOdBkbOkZJI2m8budAUEab8WyCh7EaxGFoJ8bxV88gmdYC1+bw70YQRcWC4JTnqA8GgPgu+t4PGRHpcChqiPbAA5GM3n3jIVlG0AjTYBgRd3Gmptkt+Cjyex/WOSE1D0WPkRIe0LrScHXlJvrw1aH6WEYIxWCTXUMNwPZcisGHIV1nVB8YYahyrPU7nCpPKAENUZmomRYobUBWlTs8LExH/26o1ARf8ig/gLtUC0/UMdqgUnIGvmJaRqYFnnH2elyrYMDnUUhLCcjKhWrnTfBf0tWYlL5vgzS5u4nBfgzl838HBFJdTTj+EkkIVaVgWwITac9APMtms7TLSFhyI3vE0uGTofA4Wm0PYwXqEBdqJ5QliN+sSoiknJkWCW6BZET5Pnc8P6NCCoOdZz3xiD7AvHxAmghjqE+F7qQ9M60yuA1RWJWLj1dz+fdWchN/qbsN0gPK8FSHqNwn/AJUFbBJc3iGNUBoyKu8zhEM5dKGnCdsvDFI8ahcTKTGKGDuS5ptGBOTlDSpxOQOiqqcfTzyXRfT9f5V8lBgEFlWqhxlEioFKT0bTRYzqgoA0IMqwDCaWSGjDjAqOqN2PeREbElpYIjJxblVhQRhkNqY7RmVE7gLQ3yIjpFRDkuJU9m7ihgClapzk81OM6oKCaB+1RGM6YvRoJyS7uPpNQ0fKCiBZxGvIGwf4ZSCyz5IqpKH8Rp81If9iV60Lw2rOJWkBAGg6jts3SJYOFXd6YwQVXs53OEBgFZbb9G7svuG7J0uqEgvZNf+wg8Z1y2C8ghn1PYKYGFYPjbaoociPOljRJTFgdkRVgQv5LIuDVK/gSPUPbhzQlE1bow6+kjJvYk49GwNy+MEqMR/SbVHpk4V5Cufnqy4A9nCdpY/jpVTqKBcT/uAyqAYVXTgq5ApcubI/144JiKljzFTF34bQF+gUTjq36FTmt5XBn2kuF5TBHWD4csK9fANpSsK0rcvQBAdfUmmo9a3skYW3V1QsvGp+m/ZBfGyw9jhB8oWSeV8Zl2IkLKKTMdNZ6w875pmKkj4VJ1p02w5oHpwZQHLlNL8EYBgF1rfxRipKVXc6f1UTPVc7bAd1mflIVYL2bv9RePMGmQ6dhK6+GLdUguqu+zJEv76EDcowWR+Zp5Ifg+A9a1E5Sg36RqhRQNFlfAbcjqGQZ+WGoUB4RQ6ra95DCSZSoGWjBKbp/b4WuOjSk5GyzD6QJsuG2nWYCXBXHHuHqjLccdLa3QzvbASNEZIbsGzCOokzEuO4uvWPsIouBvoNg1cbmvmH/f0daf5S3DEEYuKSA3bbtqvakgV+a3Syw92y8tJjph0Zh35CbYpxr7HS7csWrUH5HvLIZSg0W1SctQFUkdjVO58cTxZnqPncNm+N1A1/RkA71yFgh54CH5dTRfsDttXKYLTT3V71Y6gagcmtPPddMZ5WPIL5PGMS0Xb6/vO5QdzzCcqaSD/U+9qz6ywLRyESq26I3oGONSd4aPm96C4C4rTc7xo86OmwdLhMAfWpjD4jpHwtF8XxXIlDfH3ge97GiDurFTimF3DlFXVO8B5Y1LEqcEPG8SQX99Xtzg+bfeHTV61qiz5rB6/VIl1sGQAQaXE1h/hpUcI5Oade3bcXXkU3Y2gPNI5dWTBWzHLXuConeU8NcLDS5F3lpmYjmKyjfKDtW8+C8DJqbjzwLK0eN8xNTyYe390UEVtv+kIEZ3idZNixNaWGE4ZqtAGODkVy+w/RKpmK+a1atA4J7dYlWgZYqhmQS1DxwmXdzi6ijRkX9B8xngEo/xU0qeP1mycRtQM5mj1n3OfOsoHMtKMKpGzlkMXubVdJnLke5Alu+Xib7jV32RVxt0sABSGGaa+8T/adQrCunJC7YesBLO9J2KmGH6sRBrlzIH2G8dhjDtVxR6oraYjORmaW3ZvhSnrwj3pQ6IszBXOcqGqLsfIi1Ipgh61RFk1yVROA5uRDV9UvZyaT9eNK1aj8JDRCHNWmn9WiLMq4TKSpgOJLJs7Wy1jI4ngzE6/jOqrMFhHKHpqK/ccRCgTiqL6Zj1uEWfxuUaiBpNxxUdjcrIvKPW2rqLBrrSQFOnPB1KGqpaWVo2UnkJ5cAi/XVoXJGh/31aVJEYxReVUXm4WZ57DiB3eymtzTvqO+BLB2Ue0A0cpVRU0RlNzVUW38cils6nVMFJlzz2oBtAv1IZKmmV5nmWdKdOBarr9grCNlKFKpuQVR5FTpP7a9deSytrW9pyZpHHGVEC0ttC59r4iqFGS2vnOLDXOX41XE0qhZaQFm5v2mGxHl6GZYegNe7bpm5qwT+adeF29Xw4MV/1MwcrxKXH+4gkGTaIJkqu+tMECfVbJdEMM+yVklC5Xnrp/gh2/KnQqByfr/E9xPB1VXUR08tWMiqy4nIlT30tiO7ea6Az1Ib6oQRLCnFnvb9WlLdz6urAb0KnF7vWs+L3CsAj/yCkKwmUFIe+9NgWeEYaqpNWy4nIvYFveQqFh6znpxFt84VUekbTKvG4Wr2ya+cFmD2siVCxx3eYWIwxVZNmzpFdP2ve82JxcvvbKGTRnnBYbBCWWvzQUoSsEfSummchNMdIWqjml51HKndv1y6+bwbA3iWtOKNQgdRoOfrl78UpzDPuKwqlwN63jOvuS9FoH0MO1ebzOXbjqJq4mOVEyoIOXlFNzDOuSceFVMLjTg3N6PhRfoh56Ice4pTCE4XoLVYKGuo+9bu4d1mXINHMZYViVBtMy2e12SZJ/+9Vk6alrXvI4UbzI7eO6iodFQbbZW/KMMUXjmviHqPD3ZPb6rmfg6jWcdZt+vLsv0VmtXogDGt7Oq9XpFsN1ZOq3Z4mhgeWthj0LB3fiRIFpEOwp3FJiw3UwRHlt6yrjZFt3t3lp/9AAQ7xrwvrSdJoJuMUFwrTn6goyQb0X2nfHmnAZbT0fweAM1dAEoZXmLST9FERu97K05dljrelXwqoJFzth4WA1rMEZqtpn/sDH+DkIircz8YTjyuTdbOUaSLhq0zLAUMUw2H8WQwlRmoGQr+51qjF8HKepe8Sc79OAkyG2VWO2wbyieqCK94suIoXQJ/zXBENedTt9/Oyin4KbjXFs93GGzUYDHuaO8J9d9FNwotg2NFpypKDqvpnhDpLvA2GgSJIbyls1zxDnDIRztWt/E5QUG83HWxokYOkzFDfQ44O3/pdgSzG8ZDDMp/YOyZcUk34RvPtK9D+uFFbttlOHBH83CNmP9Zv3A2W7gIYMJEZ+2PB+Dq5ceX1jwz8QcCf2ky+v+GbYcHU2j1sQsRkVztr5qUvHPwMw7hXHJD3CEJVgFNrz5ne/HKA9xGxkr5psWUV2fgsEnulAWzXmr+rO/TXgqRLchyNEsBBB3rDylVdUzw/VGN5HwTYUucCuc/YzfwOcKFqZD2cwYhYdZv98Xd36l8Ce2Goc9jiCSryQX8eGUobK03kwBgYLgyErw38+0PYUwOxsE6MGG/FkzuI36fsXeSrM4GoBdempMNRnGpP0fRDdbNR04zMYsfsOLpf5VWa3hAtRQmTMf7JZNSfpVxmlEsSqsT6zGEmwqRoIwauzjUn6PggqI2XYzafYyZdV8xp/F2yp6lofrDHVWXLhG/4uq1uB0ABqcv7A7dAkRDMNRozM2AzzjcBt1U/qxj3NttTT94oL15D8pihbDQuiewfc7q3yNuEnbcLIy85/nSCVAKYYRUJ0907l69tQJLOoBMuFVSMHfh9sfctXlZov+dFzoD+Le7xsFskAj85yLfyPADRP1V2FUbK8XpftIpkUClLJ+dtXNhvAVc+6dagHojUU5eiC3F8JUQy9qKv+2jB3GUOCmJ9+p5RRIJtLfKunGytRhUXer+VBBYlEg9vr5jmmm3cuG6Ptr6yM/S5IsCaOe/FeiJliszwcQ4+rPl9y+dUUqiBT2t6WzbwcCqvQpuF88eWVo98D0cLrRvahVfF8X9T4eyFYhAyu25H/o5zR22X3i+pKjCBKDttbSDgJb8dr8l3E6QaZgPTb1G3kBkHQrYtrrygvlssi6TneICmWm13+xFqj91ebSNYnJF78N9zrvCQMVsR43L6uLlreoC5a/J+UrZhq4FEydE+Za1EL2iPk/4l3+nkc3b0nq1dB0tpec5DghnLxS+oDI/verbHUgFl0EEMoAvHsMA45dIP47DNpnyifr6ET+gttzk7lKnYYbeRo3C1cXelYq+02dqBs1Wn0IvHhu+YAwziFpn43X4D5+4kG4n3I/zz9oSHYAoJr4MAoKMq6NioCbeqUeJVnenAE6Xl1U9U4hiraDP+AAW3PZ5hDOl+lHQwnbPSn1Gx4IgLz2rILoO246rN8iKFb/8v+RMg5tufD8OhbvYwCNSikKSQieXmZHvtjjCHkFp6PyM6Jodhir4eIMna39VD/RpTL+QSGKf9E1dyMGLrV9cJtOBI9EaAGed2PmgVgjqHYGPu12sN0eSnP27fuhIpsfTyXlyWO/U2SPITUGEBNRcJyOf+9yvFO4vf4uzxJ5G1s1/KsGS3aiefKRf0FUMHYc4bQ+Haf+obg4+IzGN7UN2RHhxOfUuLQZtdfWnqcUh9MZvHb5I8jA9kw+8A7q0d2N49QSrlXZi+bD+d/+MKb9/EOCVPuf6itWIYOgVc5YSX4BT301Cmse0lLsJSKwz5JpSv9ViKMY9kybvGw2kBoAvYFPvDXF5B9vnTxhB721SzOlwuDmZmMcUpoJmgJa51eSkrfXw7g62NNQrRlNmXQP9VoF5bjM+7MVSHje4r56pN9AsMN01l0sRSbnzd5liyIb1Etx6LYt3i5y/LinUHGLz+XW0BwWwrAT0JHOY+vu93yxvz4QNT1oS9/BYZQP0RU2ZpQ7azcBVG6FOrGWehVg3HVSXNHtL96/1WLH3MMoQgUa7SKD8vWYjsVuoeqKQ2FUxUSBHqr25JmU92GJX6GIV26aPud0mNJySHDmUEXXvXcujdaYbCEsSZe2bIeZUqqZ/HvviozMsfwnav5F6AY67kFAXAHbvKe2HfzfFsYgqyo7Sl5wQmt1iOw1ceTcbsefZxyu0pYyMktvnNqTKeB1s6+ym9BH2qsyCMM1c/5WTyIUmDNWul0WKi6ktC/v5m+haH4ZHO+vxzyhj/KW26rYBv8q36R+Jet/5XYEFuk3LpqoQo51r4am7XW3o/sUmu/Xi6Xe7hz0sb5HjDpv1XjWYm4d3JfDNLCUAgF1vik7Kytcap0XUBb9zQKHJz6teuQgfjiVP1KbDDtu7YSMHw3wtCX/iEk02PUXSlrWKsAV65qt2RbfgfFJobdT8o7AyoM61qgndPaCPGx5sCZaFfKfj81UlNg2Hsxp/kZglKCfuLXpVpbwTrl8nBbrxrm78PAjxaOTQzFyluflCNyKwxrk1Nsmb3cVbCk3Uqo7F3qleresD4+fCP67oUHGIaH47Y8Hja1PIbNaQ2xB9WDTkdKoVuAhw311MQQDNtmy34Hw2pnJFOyCnjznmQFMAENhwfmA7J066uBFaaSpgaxw+1xaPKGSRRu7hZsAJvVo/GaGIq9ac03amNYN93JG7NacB/Vz/REL5ix1acPLd0q9YTGH8LQrc7wBTINcMG4Ekr3GLZOX7bK9GEoiB3kWwPuXW/hMmGXCQi6e5smq7b9eQy7tAbFoc1epODKqynRHSplbfdr6AyFXrUfRkpzfcm6sOV6hKnYAKWYnscQ5EWr6qPgnVtswAjQ4yebGFb3oitIW7K0xlCsjj2MeokPo2CG0ui7cYPSlkPGfh5DIHza3GKhuDtzCiE3r05VYFjJAaDKpp8ja5/xxxaGYg8fzyPLqqMTWtZfdf4K4li9+nkMoemhiRFMvf7oGGvC7FWzsV6bfvmRtOS+vBkDf2xhKDR+W+P2waaKOCSe1d1imGGoxyl9AkO4UKJxGcGxp1YprsjvTBuSLmn1KWOBPv7cwlAOTnh0qwoQh8LhvdsrlArLmWvN+wkMX07CY6p+f2D6Jp86+CUEmXZKL6RJcWIt1aiqtUeHMISedO+eTs9FdbBuKfZVu+PRjbSe38HF2lXe/zMYpkxwYryDV6RHVrsLxxUmi3LYX6W/hVNp002gJm1HoS+05Xm9261PjB3CfkkDbpIgvPMOI6PZulR4O+Fllwau+A1Mhqlv4A5i0I7xMnUjNy1KQWPsXK07AOdj3YSaAYYwFBYFXIYUb49nIux+NcRfCBLCwtVxexNbqIe1yTYXm1uh2oXgVU1f4b7Q4lYlkDoYCh9bbCKzbqfTLWQch+YKZWMTxsPQkmZOc2yZW4JzzHkcx1QY5qQZ8A/kJMUaWKOQ2hXuey+Gwu+FuLJPqe3zyn5JPjjFwRfEqdVe4chBeHqWsPDbOKHCnKebuh8fSoJoO6C+CyHJLV9H+Qfe0xdWcxkEpre2HVOEjMoUCzhXi6aoDzzahsbQc7dcnbcDMm1XhszzWFg2QkPZ4mZxzyPxsame8pXtONyqzA63uBz3B6BxofE1ux5Oq07iJ9qUoYwExeeD/ktyOcvf2fH+3sgpjjHxmOx7bw0bDE6rNpS9h9YDAYz265oekG1Mu29IxS/73pqS8fYJmCp1NzswHU5nRmm2e4s9blPikNN+2R1Y/P2w41/Q8hrl19ATcgI8vh8v7D/SsUmBEyC7nmxO7B9vAsuJ/XVdTEGxj+e5pPtJaAiITGhD5yv7st0f6XJj4RW/N1hLw+Mn1vClkDg2d9jr+RTCuDPer2x/NRQg5UCPQ4iL7f//IShU4PokRyl5Xrj4Xc2gz0CW7HY/r4z/wT/478P/ARSirUGcnZTOAAAAAElFTkSuQmCC;" vertex="1" parent="jkhA9yasebKbBRG_ayPd-1">
          <mxGeometry x="30" width="65" height="65" as="geometry" />
        </mxCell>
        <mxCell id="jkhA9yasebKbBRG_ayPd-3" value="Postgres DB Cluster" style="text;html=1;align=center;verticalAlign=middle;resizable=0;points=[];autosize=1;strokeColor=none;fillColor=none;fontSize=12;fontFamily=Helvetica;fontColor=default;" vertex="1" parent="jkhA9yasebKbBRG_ayPd-1">
          <mxGeometry y="65.00000000000003" width="120" height="20" as="geometry" />
        </mxCell>
        <mxCell id="jkhA9yasebKbBRG_ayPd-4" value="Persistent Volume" style="text;html=1;align=center;verticalAlign=middle;resizable=0;points=[];autosize=1;strokeColor=none;fillColor=none;fontSize=12;fontFamily=Helvetica;fontColor=default;" vertex="1" parent="jkhA9yasebKbBRG_ayPd-1">
          <mxGeometry x="5" y="84.99999999999997" width="110" height="20" as="geometry" />
        </mxCell>
        <mxCell id="ltz1dPAZePOmlapIzzpa-1" value="" style="group" vertex="1" connectable="0" parent="1">
          <mxGeometry x="190" y="270" width="110" height="129.99999999999997" as="geometry" />
        </mxCell>
        <mxCell id="ltz1dPAZePOmlapIzzpa-2" value="" style="shape=image;verticalLabelPosition=bottom;labelBackgroundColor=default;verticalAlign=top;aspect=fixed;imageAspect=0;image=https://blueskymetrics.com/wp-content/uploads/2017/09/mongodb.png;" vertex="1" parent="ltz1dPAZePOmlapIzzpa-1">
          <mxGeometry x="13.5" width="83" height="97.27" as="geometry" />
        </mxCell>
        <mxCell id="ltz1dPAZePOmlapIzzpa-3" value="Mongo DB Cluster" style="text;html=1;align=center;verticalAlign=middle;resizable=0;points=[];autosize=1;strokeColor=none;fillColor=none;fontSize=12;fontFamily=Helvetica;fontColor=default;" vertex="1" parent="ltz1dPAZePOmlapIzzpa-1">
          <mxGeometry y="89.99999999999997" width="110" height="20" as="geometry" />
        </mxCell>
        <mxCell id="ltz1dPAZePOmlapIzzpa-4" value="Persistent Volume" style="text;html=1;align=center;verticalAlign=middle;resizable=0;points=[];autosize=1;strokeColor=none;fillColor=none;fontSize=12;fontFamily=Helvetica;fontColor=default;" vertex="1" parent="ltz1dPAZePOmlapIzzpa-1">
          <mxGeometry y="109.99999999999997" width="110" height="20" as="geometry" />
        </mxCell>
        <mxCell id="5oVto6m_RsJIrJNc-F-A-1" value="" style="shape=image;verticalLabelPosition=bottom;labelBackgroundColor=default;verticalAlign=top;aspect=fixed;imageAspect=0;image=https://www.pngkey.com/png/detail/38-382292_graylog-2-3-logo-graylog-logo.png;" vertex="1" parent="1">
          <mxGeometry x="660" y="190" width="130" height="44" as="geometry" />
        </mxCell>
        <mxCell id="5oVto6m_RsJIrJNc-F-A-2" value="" style="shape=image;verticalLabelPosition=bottom;labelBackgroundColor=default;verticalAlign=top;aspect=fixed;imageAspect=0;image=data:image/png,iVBORw0KGgoAAAANSUhEUgAAAY4AAAB/CAMAAADPY9VGAAAAhFBMVEX///9GUmQ/TF85R1s2RFlDT2I7SVzJzNE+S165vcPV2Nzt7vDR09dyeYYxQVZHVGf19vbAw8iKkZuqr7aip6/4+Plhannc3uFNWWqytr1ZY3Pm6Op6gY1ocX+BiJPg4uWXnaaTmaNUX3Ceo6wsPFOHjpl1fYllbn1+hZBsdoQkNk4YLUeVSvb0AAASL0lEQVR4nO1daWOyOhMtWRAFEVRQcV/b3vf//79XFGVmEnYrfarn072PFEJOkjmZJXx8vPHX4AVtt+CNBP6JHVzXjTbztlvyxsdMCmbEkNZh8SakXdiRMFKww6ztBr00ekwaCO6w7Sa9MByTsGEYYtV2o14Wc6mwceZj33azXhUhU9kwjEOn7Xa9JkZCx4Yhp+89SAuwB5qlKgZ/L1ctYGjq2TjLq/f24+mYZLJhsK+2G/d66GvteDI9em237tXg6+14Ys3Dtpv3YgiiDDt+hei23cDXwpjnsXGeH2+x+0QoIpfuz/mm7Sa+EoYW6nwmo6mFCXmL3eehh0WuOfTOtt1AfLBF2418HWCRK5eXf/SxOXGdlhv5MiAiVyS7jG9MUtRuI18GRORax+TfJ9igiHdk8CkgIlfejfaRGPi32H0C5qjPDT6+/2Jja25uW2zlywDPAbkDc2BErPlb7P44erjLhQ9/xFaFndpq5OsA6yfWRz++xe6TQUQuJ650siPZtdPIl4FHRC5Nq3qL3acCi1xp2PQC4s0y32L3B0FF7ki5gohd68Fi15s4fnc063ac+ZtoKnJDTZf8nNgNOtuQu4LHEMKVy03He9jN/0UQkWuqk+NDEbt93TV1nr0dCOzEl5YwF6Pn72289dMfqcc3TVfQxWA7ZHo8JClxvnAtQwPG3eVIMWA/CHv2xX9JGrKariA2mstOWOxOH/Bkx9CScX0AF0/abgaT8VJwpsjJduDt1HQF3leH5hp3ncbeV4WvZsojQj4bP6EYnj/cuZd2sN9Bx9jVdIW1U1fSLeGjqcHt8Fw2DP6E3Y0v7pbrl9AxOem6RRqKJ8Qz8veKFbHW1S1AuE8wHkAw/hI6zkMk0mSCSsun182INW8mRfLyHS8NeEaS3W+k48PbWupIlaorBIvdJJheE0SpScYsJuGEeYBxKsavpOOscXQTRNAOeaTY/YbUMis6DberfriT4laX+JSwyi+l4yPQTRCFDyJ2B/Wft4Z3Mhc3D7K97hwjFiud5+RI/FY69BNEjPE1cyKuxvpblQC0QyYp5FmPQ86eslb9Yjo+7JWaoUv52BBPe22xe0xnh9Q4XJwvK0MoBJ5texUO5wi8K/S/VqUjfvr5+aWf3ggzWk+uhDao2D1m3KkQwHRwRcLF0Klcr7Pph1MmBrvwNBw5tFcmToK71ZnPhsvdYGAYg9331ge3tGfdC1ZgVCx6t7+PNb59++80Emd3V6HBXdNYeunPMTRt9eDvJetilAHoTBX1ybG9pmJ3Uu5JCsKUjrL7C+dLnvdsl7+TZyFmiumwg2bJ0hUXHJLMVb/POUvEmpSWkMP7CzuHiweZw9eV4gYrftH/kv+RSfPsjeTX4Soj72NyuF8tDpo1uwt/35R6v85hS3ti/km9SJJhbkMsdms6MgJwm3IrnrN06VCRTIRwsPSTe8pp/Frrb0H/wLqXmzrZNXeJP657G3fJePQH94EY0wGnt/xWmwtFTzmNGETSnFLnrbegDZUDdDeHpI5qV5pifMpKrQ2OrnYPL8UwJfNGhyE6ca63bpspFtf5VIEOdlmQNwJ0f0wHXCa48gYeaG3J/WxcQC75id5KMegsQsN38RDP7jJtr1msz+wwsw6IR/cV6E7HuQdnGQ4xfl3IeuXpkLvz66/gILzQYQ/ATZUNM9yhlfO9JfFWZtCrt/TVTVRFMMdvUlPsriCpRd6WuWrSUrDp7c/vdMholum5v2rFCrPD4M55bqDfL+PzK22TWmYBX88ttRhvkxZJviIWZEP5wPGPDeGjlqcPBnvlNF96BLtc9xaLkhb0wXqSffnF1VaFDmtDFugrHXACMNIHAZg65bIEJ+ndzIh0hzI/UI1mgEvWrFpRNFS/LuU+j9MTHOqScSE4ipSYScF7P4cE0D1xe6vQYexIAeuVDpgMxYkJhrcvZ12hQ1UysmCp6xUUtF38q6gldj/RK/LBOJOQGRybfHrsOr3O/hPahmTnotJxVrdn7shuSpyf5LjmBfAXad4gyUvSismrMQXxH0aGJAwN8TK90SFphyRTZ0j4kBFU+I8QuyTRVPLpWL/G2rCl5v52USdKXzlpHaWDse99Z+L4wymyJLFpne/HF5zA+vY5vuNDGXO3i2Ik2gasL8YAt32a3rZUWEgpIOcnPDpXZDZzeNfeI8TugljbMyEjHSFwpFlgm2GDjIvr9CB08NVt2trobaDhzXaSaOiQnO+iMAyjRGqCCS7QZrkHmlzqqAr1lCQrRPom6JPeQubj6wGe3blyNJDkO9WGBCB2jCWxnY7Ba54RpgNJvhV4G6jNK9DBrP5oYntBEHjJ3mCUkoznwD79oVTf2Bqjx6bIBnj0lDGoHmySmVXrbCVfdelLPqCEgG6hqdrddExdtqqIDqww4C7BcNOFF/RoAR38SzGRc7DSwXoYGKYr1TVDnSyXmI/5FPeWBcX1ntQ81xK7XV1MmBtj5Ij6ztYvQdrCy3qJZwfe3h71TovSdFg6fz/whAiwJk3gs0pEsCf6Pa4coHXOIdMDmQhSbl7vbCX91pmHsBlgrbIo6WkfX5KGIR3UgsJdAui6snRY2tNYgByxNuk/gxWwlIMkK2tADtD8IN5baQBLm1H1XBGdnU7/S765TxCwA1PLStLOvMRMIB2CJMLArHBgd0vSYW60zQfWC0pPIDzLOEiyT0kifJCT31B0g4jdmmkf9tDUDQ0e3iYCGBKqKyIdnZfnw135lIi0YKeVQeXowDIfAOSap7svYFLKBA8CTdph+hpwyQ1wn6MqtB7OlqPremn0vnUr1t0RBaOG37MRxvD+o9zZmA7FMxE1oCMzUOwA18ZdyMERVMJBMtJbjuQGIeRzgocumgMrInZrF2b4S67OEJlEfeDmPd02JwBUTTEd6uYrbDI7suwx2L6laU5AfJTYkelELoB1gv1KqIOhWip2N4VPzoSzUAlh171+1rmlFLHSBXSoTvsGdGSuVUhhimRdsUGrePEYJSJXEf9o/02tPhQ3Y2JZmuRFOSeFkGtWUcF5Z3cQOlQT2oSO7Pw+kJ90W9GA3GLFqQQTbMfZWPFeo1eZ5yTm4pHb8Gwlp08JufjedPncOlA6lFWiCR05tUXpynQzVyA8R+Wd7u9pAfk8ontCC96FqF0B5gCtfm5Ybn4mBHs5YnVwKGbiAkKHUBIkG9CRZ5BB91wDP146SKVR+M6kC9kkjnxSZ94UmnO8XP2A2E3RGaDMjjgjoObseBod9vR+2VVcdvRbQz2IyDUvTbBp+gjyhxB1BXf9EyJ2GxdkzCP4MPGBbYclssFbogOsTVfXBNiKFDtISAF5Mg1s6i5EHbtFJhv5Q0jJ7aBxep4NHf/x6wDHGRt3chC0RAeYDSx+/XS8F2cZ2yTMfdvezOnOECptG/sSIec2XvqaiN3b28GwZgdlnOizFQFaoQPU8sX3BWHZ4izjzALyCQlAokLlGSIRiStyJhlrXgw8xf2fbrwNq8hX3QodIDwW61qQxFzoICFRPJjv2SG+PJSbi0OHKGvwoWI3BlSrXaRcCqVCO3Skob/YMwG26ZrcRIwl7jvkFadn78F4AXY2ox1vh1jzxuXmJzw74AhSHOwE7dAB/DjCgdvCIi8eEbkWdiSscty35MgF+GeY4tJid5y1rEHPa7yRAW0uSlesQ0fmFro8Hek9rD2gtyj1OCDhPcNCwtQm2QzwTCs8PVDYfF1L7NqGHGpDJA6M+sezAXkq89+wBh2zzL13eTrSUIoM0z6kuT4K1PPuTdR3Pax2kTVHygv7cIZ1xK7PDcv8nCmrDxwT16i/A+jOPAnlep8adMBxhiZ9BTrARlnmtQBjrgk64bFM+II3xJ5dlHPuEc9uqbOVLmNe8sGiixatDtwGJhIOzmlzoXGR2v7n9Zk16IAxW7wWVqDDV8Z5/HIFPTDvC6n8kYWaTQ6UBpPAQwoKN3xUXezat9nGuAyPs95kPZ9P/E2InFaHa3wNWTwrIv089xdTnnw4oQYda5RTd8uEjEdbBTpsagWMMg6SD1+NTONoLPGHwHdCedIkeQi3pkwEDA7KOOnWlFODc+zrZzehiDxjki/HztwObHs+6ey/wkGc8pm8ew06sAOfT0/bzfArJDm6hW90VBNzypSFeUdlgtzTvy/Auesw23OOmMKe4+piV5tYlPVCZJWVJjem0W5qWMJMsm8b0IHK2+OSNYsxVpUONQG75OmdvnIQiAXNIzmiErYbOXbJ4XvkINFCsevlf9Po+ux0QfQVt67Er9GADl0qLs1gL6RD/UZTiRKiC9Y7OjDR5xlx62A7sL3Chqqq2O3pbB+GgLuAWYGbvQEdH5p5WpkOmgVY4cgI+1tJPoUrD97VgVoBvGshcS7s9C0Uu9u8769d749Ve1ejQgCa0DFT21KdjjX1wJY/riVY0GIBeBQlPnYEuguRMSerlUfi7wVid31kuSeLSeX7z71d3oRqQsfHUpkf1ekgo7hS5CegxZjoA1skVyEd5z283cP3nKlBxlzY+6lSZny/tQjVDXuwsTILllhS2F2PDk85/KMGHTSEXSnw80UaAKMbeHpAmtFqRSNdlU/ND/yFFOockZYb6oeWvZW6fCxLyGPCHhhJFeg4LxekYv2i40F6fIljUVGGfJFju08aF5DoH/pzNO/gIogO36PTsY5n13P2felyM9aWZ1gmFyLcZGf7erOvgXu7+nz9+Q/caOvfR+JJDm5Qn/9pZP/YOYlYNMeFTZZpChG/dNe8X6+mNKpA5d352W5dly+wpSfpOqj3sIQCswCpa2XEkLOVyh5/5K398Xa1OONrO+527II8MW8y2wwXFxy3m7GPDqW+nQajPRHGy/vxw/b3x88w/D4N97NrI+DNSiRYonhR7tcug3PXW+RsXFIaCK05FtHwjGPkKBHkKXMyPZ5y/tFjETQ4cBxmyOeXA15UqOQr9LBRdnkfEtFwtcITkmZV4XJznBz09wEdd7nlgLc9mhmhBYssLiCSuMb+kPSv0B5RGf4BXv9+ySnBzwJQCvkOkrublqHipjWWZjDYhIq6gM1GPKnqoarY/UuAIzW3HBBIHsmgpMDuQhg4RyIa/oCkrurQ/6FT8/8BIBd7brYbvFAyYCI84qVP1/o5/iG1OShQquatOMSa1zxb6R8EDBTlZpDg2JBkmeV9cCOBvM6g7A9NG030kZytlF0W8bdgf8MdWd6mg6YJomUNHQsCSUWVG0DqolOgND5kEplocJDo70eqirvoeKfcHdcKO5qmaLxiRwsIqqLjdIDxgGeYaYuXSfhq8IfFrsM+h+OuvzlNsacn76xnWk+J55GHZ046C9BOEHKI/l2j5x58av5vhiMkMzm3yHFAVp6AwQUYjHrhUYwUKldkBEAoBdtyzQO7JLPu74pdRxuzyV0QqNShnYMK0y61wAmQAABzCv27NuKFB0C9o8f+CejpyP3g6LJo6UAbPhD6Q9FTYLOR911b+UZGQGYJ8D8PLR1unrYnXj1NSuU+QyrNofseJK+izB99TjAuN693ls+/AA0dMt+xPsJlS5qYCLonyCpFxy2AzBA7y9mb1cynfBOlFah0mFG+pcQ5RLocXqSt5GcqoZCDERyogG6o1U2kUNp4/gcAnwN6eigXm4JdL6nY0DkakfEAPnH0JQJwECyaNVpvAI0aP+T7gr8Qnf+sW7KXZNyNCj9zGJCabF3aKNp/i9TuIl86sPFQAWsPmKYpLs/4vFkrCPx9P5Lu4eCyaDUqoVioJTfM5cgnQLMAKFokrazN/foT7G2w8ehef+4O6Zkaf9eWV4Wt5lKanAD5UIC0wiEo63496uxD+qyDUD/A8KYDgS5WhQDZakjpZgEc8ahJqb/iX4yZ/xAqsgG1l51zBFlKR2q9MnOgS5yS8io4ZuX5ZdGR5hOpOdk6OlIR+5l1+eCvCt3q6BRmJmOAYkV67J4WQIktMy5/pQhtITJX9Aw6wEaiFB2pAP7OuLx5nfkfQqeaMYfb8szVB9KRhm1P+nWRFZ488FKgHxoooGNZkY50dpy0l0v2thwISm1NLh31Fyvtl0xk0/Pf/h5OFcx5A1Ousx3SfBsOBeNDiSrVK4ALvkwxJRS6KntS7P5s6KkJ7KFLP7eTRUfqMddVrqt0pNtAsmuUpjv4q77Dxgj8r517cAvxX+okWeccO3jH/1LLz930n12Xf47fVqMAdjFAkUevBOCJ7ADrP5xd9cYbb7zxxhtPw/8BmwULn5CEXsAAAAAASUVORK5CYII=;" vertex="1" parent="1">
          <mxGeometry x="664.99" y="310" width="94.02" height="30" as="geometry" />
        </mxCell>
        <mxCell id="5oVto6m_RsJIrJNc-F-A-3" value="MicroServices Log to Graylog" style="text;html=1;strokeColor=none;fillColor=none;align=center;verticalAlign=middle;whiteSpace=wrap;rounded=0;" vertex="1" parent="1">
          <mxGeometry x="682" y="240" width="60" height="30" as="geometry" />
        </mxCell>
        <mxCell id="5oVto6m_RsJIrJNc-F-A-4" value="MicroServices send allerts&amp;nbsp;" style="text;html=1;strokeColor=none;fillColor=none;align=center;verticalAlign=middle;whiteSpace=wrap;rounded=0;" vertex="1" parent="1">
          <mxGeometry x="682" y="350" width="60" height="30" as="geometry" />
        </mxCell>
        <mxCell id="5oVto6m_RsJIrJNc-F-A-6" value="" style="endArrow=classic;html=1;rounded=0;dashed=1;" edge="1" parent="1" source="BoOcz5o_qorlOq226itc-7">
          <mxGeometry width="50" height="50" relative="1" as="geometry">
            <mxPoint x="620" y="140" as="sourcePoint" />
            <mxPoint x="650" y="210" as="targetPoint" />
          </mxGeometry>
        </mxCell>
        <mxCell id="5oVto6m_RsJIrJNc-F-A-7" value="" style="endArrow=classic;html=1;rounded=0;dashed=1;" edge="1" parent="1">
          <mxGeometry width="50" height="50" relative="1" as="geometry">
            <mxPoint x="560" y="200" as="sourcePoint" />
            <mxPoint x="660" y="330" as="targetPoint" />
          </mxGeometry>
        </mxCell>
        <mxCell id="5oVto6m_RsJIrJNc-F-A-8" value="" style="endArrow=classic;html=1;rounded=0;dashed=1;entryX=-0.046;entryY=0.852;entryDx=0;entryDy=0;entryPerimeter=0;" edge="1" parent="1" source="BoOcz5o_qorlOq226itc-1" target="5oVto6m_RsJIrJNc-F-A-1">
          <mxGeometry width="50" height="50" relative="1" as="geometry">
            <mxPoint x="570" y="207.7933333333334" as="sourcePoint" />
            <mxPoint x="660" y="220" as="targetPoint" />
            <Array as="points">
              <mxPoint x="400" y="227" />
            </Array>
          </mxGeometry>
        </mxCell>
        <mxCell id="5oVto6m_RsJIrJNc-F-A-9" value="" style="endArrow=classic;html=1;rounded=0;dashed=1;entryX=0;entryY=0.75;entryDx=0;entryDy=0;exitX=1;exitY=0.75;exitDx=0;exitDy=0;" edge="1" parent="1" source="BoOcz5o_qorlOq226itc-1" target="5oVto6m_RsJIrJNc-F-A-2">
          <mxGeometry width="50" height="50" relative="1" as="geometry">
            <mxPoint x="310" y="212.648275862069" as="sourcePoint" />
            <mxPoint x="664.02" y="237.48800000000006" as="targetPoint" />
            <Array as="points">
              <mxPoint x="410" y="237" />
              <mxPoint x="610" y="240" />
            </Array>
          </mxGeometry>
        </mxCell>
      </root>
    </mxGraphModel>
  </diagram>
</mxfile>
